<?xml version="1.0" encoding="utf-8"?>
<!-- Generator: Adobe Illustrator 23.0.1, SVG Export Plug-In . SVG Version: 6.00 Build 0)  -->
<svg version="1.1" id="Layer_1" xmlns="http://www.w3.org/2000/svg" xmlns:xlink="http://www.w3.org/1999/xlink" x="0px" y="0px"
	 viewBox="0 0 400 140" style="enable-background:new 0 0 400 140;" xml:space="preserve">
<style type="text/css">
	.st0{fill:#D83B01;}
	.st1{fill:#2F2F2F;}
	.st2{fill:#C2C2C2;}
</style>
<title>Office_365_1_400x140</title>
<path class="st0" d="M185.9,85.8l-1.4-3.9c0.7-0.6,1.3-1.3,1.9-1.9l4.5,1c3.5-3.1,6.5-6.2,15-7.9l0.6-1.5C197,68.6,190,60.1,190,50
	c0-2.2,0.3-4.3,1-6.3l-1.8,0.4c-0.6-0.7-1.3-1.3-1.9-1.9l2.6-11.4l-14.7-6.1l-6.2,10h-0.7h-0.7h-0.7h-0.7l-6.2-10l-14.7,6.1
	l2.6,11.4c-0.7,0.6-1.3,1.3-1.9,1.9l-11.4-2.6l-6.1,14.7l10,6.2c0,0.2,0,0.5,0,0.7s0,0.5,0,0.7c0,0.2,0,0.5,0,0.7c0,0.2,0,0.5,0,0.7
	l-10,6.2l6.1,14.7l11.5-2.6c0.6,0.7,1.3,1.3,1.9,1.9l-2.6,11.4L160,103l6.2-10h0.7h0.7h0.7h0.7l6.2,10l3.7-1.5
	C179.7,96.4,182.4,89.3,185.9,85.8z M173.2,77.2c-3.6,1.5-7.7,1.5-11.3,0c-3.5-1.5-6.2-4.2-7.7-7.7c-1.5-3.6-1.5-7.7,0-11.3
	c1.5-3.5,4.2-6.2,7.7-7.7c3.6-1.5,7.7-1.5,11.3,0c3.5,1.5,6.2,4.2,7.7,7.7c1.5,3.6,1.5,7.7,0,11.3C179.5,72.9,176.7,75.7,173.2,77.2
	z"/>
<g id="administrator_1_">
	<g id="_Utility_-_Maintain_1_">
		<path class="st1" d="M263,83.8c1.8,0,3.5-0.3,5.2-1c3.1-1.3,5.7-3.9,7-7c0.7-1.6,1.1-3.4,1-5.2c0-1.4-0.2-2.8-0.7-4.2L264.9,77
			l-8.3-8.3L267.2,58c-1.3-0.5-2.7-0.7-4.2-0.7c-1.8,0-3.5,0.3-5.2,1c-3.1,1.3-5.7,3.9-7,7c-0.7,1.6-1,3.4-1,5.2
			c0,0.7,0.1,1.3,0.2,2c0.1,0.7,0.3,1.3,0.4,2l-25.3,25.3c-0.6,0.6-1,1.3-1.3,2c-0.3,0.8-0.5,1.6-0.5,2.4c0,0.8,0.2,1.6,0.5,2.4
			c0.6,1.5,1.8,2.7,3.3,3.3c0.7,0.3,1.5,0.5,2.4,0.5c0.8,0,1.6-0.2,2.4-0.5c0.7-0.3,1.4-0.8,2-1.3l25.3-25.3c0.7,0.2,1.3,0.3,2,0.4
			C261.8,83.8,262.4,83.8,263,83.8"/>
	</g>
	<path class="st2" d="M219.5,70.3c13.7,0,24.8-10.3,24.8-23c0-9.3-6-17.2-14.5-20.9c-6.5-2.8-13.9-2.8-20.5,0
		c-8.6,3.6-14.5,11.6-14.5,20.9C194.7,60,205.8,70.3,219.5,70.3z"/>
	<path class="st2" d="M219.5,75.8c-20.5,0-37.2,15.4-37.2,34.5h37.8c0,0-7.5-6.2-0.8-12.9c2.1-2.1,17.5-17.7,17.5-17.7
		C232.3,77.9,224.7,75.8,219.5,75.8z"/>
</g>
</svg>
