<?xml version="1.0" encoding="utf-8"?>
<!-- Generator: Adobe Illustrator 22.0.1, SVG Export Plug-In . SVG Version: 6.00 Build 0)  -->
<svg version="1.1" id="Layer_1" xmlns="http://www.w3.org/2000/svg" xmlns:xlink="http://www.w3.org/1999/xlink" x="0px" y="0px"
	 viewBox="0 0 200 120" style="enable-background:new 0 0 200 120;" xml:space="preserve">
<g>
	<linearGradient id="SVGID_18_" gradientUnits="userSpaceOnUse" x1="91.8727" y1="85.5106" x2="91.8727" y2="101.1383">
		<stop  offset="0" style="stop-color:#C8C6C4"/>
		<stop  offset="0.525" style="stop-color:#D3D1CF"/>
		<stop  offset="1" style="stop-color:#E1DFDD"/>
	</linearGradient>
	<rect x="77.1" y="85.5" style="fill:url(#SVGID_18_);" width="29.6" height="15.6"/>
	<linearGradient id="SVGID_19_" gradientUnits="userSpaceOnUse" x1="91.8727" y1="9.9301" x2="91.8727" y2="127.7698">
		<stop  offset="0" style="stop-color:#E1DFDD"/>
		<stop  offset="0.1976" style="stop-color:#D8D6D4"/>
		<stop  offset="0.6007" style="stop-color:#CCCAC8"/>
		<stop  offset="1" style="stop-color:#C8C6C4"/>
	</linearGradient>
	<path style="fill:url(#SVGID_19_);" d="M153.1,93.5H30.6c-2.3,0-4.1-1.8-4.1-4.1V16.1c0-2.3,1.8-4.1,4.1-4.1h122.5
		c2.3,0,4.1,1.8,4.1,4.1v73.2C157.3,91.7,155.4,93.5,153.1,93.5z"/>
	<path style="fill:#E1DFDD;" d="M116.5,109H67.2v-2.7c0-2.8,2.3-5.1,5.1-5.1h39.1c2.8,0,5.1,2.3,5.1,5.1V109z"/>
	<linearGradient id="SVGID_20_" gradientUnits="userSpaceOnUse" x1="91.8727" y1="7.8598" x2="91.8727" y2="95.0426">
		<stop  offset="0" style="stop-color:#CCE4F6"/>
		<stop  offset="1" style="stop-color:#66AEE5"/>
	</linearGradient>
	<rect x="33" y="18.6" style="fill:url(#SVGID_20_);" width="117.7" height="63.1"/>
	<circle style="fill:#FFFFFF;" cx="91.6" cy="87.2" r="2.5"/>
</g>
<g>
	<linearGradient id="SVGID_22_" gradientUnits="userSpaceOnUse" x1="153.1621" y1="31.7105" x2="153.1621" y2="120.5637">
		<stop  offset="0" style="stop-color:#E1DFDD"/>
		<stop  offset="0.456" style="stop-color:#D4D2D0"/>
		<stop  offset="1" style="stop-color:#C8C6C4"/>
	</linearGradient>
	<path style="fill:url(#SVGID_22_);" d="M169.2,108.9l-32.1,0c-2,0-3.7-1.7-3.7-3.7l0-61.5c0-2,1.7-3.7,3.7-3.7l32.1,0
		c2,0,3.7,1.7,3.7,3.7l0,61.5C172.9,107.3,171.3,108.9,169.2,108.9z"/>
	<linearGradient id="SVGID_24_" gradientUnits="userSpaceOnUse" x1="153.1613" y1="5.3248" x2="153.1613" y2="173.444">
		<stop  offset="0" style="stop-color:#CCE4F6"/>
		<stop  offset="1" style="stop-color:#66AEE5"/>
	</linearGradient>
	<rect x="133.4" y="46.7" style="fill:url(#SVGID_24_);" width="39.5" height="53.2"/>
	<path style="fill:#FFFFFF;" d="M157.1,106.1l-7.6,0c-0.7,0-1.3-0.6-1.3-1.3l0-0.6c0-0.7,0.6-1.3,1.3-1.3l7.6,0
		c0.7,0,1.3,0.6,1.3,1.3l0,0.6C158.4,105.5,157.9,106.1,157.1,106.1z"/>
</g>
<g>
	<defs>
		<rect id="SVGID_8_" x="305.5" y="30.3" width="113.4" height="60.1"/>
	</defs>
	<clipPath id="SVGID_25_">
		<use xlink:href="#SVGID_8_"  style="overflow:visible;"/>
	</clipPath>
	<polygon id="Group_1_1_" style="opacity:0.1;clip-path:url(#SVGID_25_);fill:#FFFFFF;" points="387.6,109.2 144.1,109.2 144.1,6.7 
		331,6.7 	"/>
</g>
<g>
	<circle style="fill:#66AEE5;" cx="90.3" cy="48.8" r="20.6"/>
	<g>
		<defs>
			<circle id="SVGID_112_" cx="90.3" cy="48.9" r="20.6"/>
		</defs>
		<clipPath id="SVGID_30_">
			<use xlink:href="#SVGID_112_"  style="overflow:visible;"/>
		</clipPath>
	</g>
	<g>
		<defs>
			<circle id="SVGID_110_" cx="90.3" cy="48.8" r="20.6"/>
		</defs>
		<clipPath id="SVGID_31_">
			<use xlink:href="#SVGID_110_"  style="overflow:visible;"/>
		</clipPath>
	</g>
	<g>
		<defs>
			
				<ellipse id="SVGID_108_" transform="matrix(0.9063 -0.4226 0.4226 0.9063 -12.1835 42.7302)" cx="90.3" cy="48.8" rx="20.6" ry="20.6"/>
		</defs>
		<clipPath id="SVGID_32_">
			<use xlink:href="#SVGID_108_"  style="overflow:visible;"/>
		</clipPath>
		<g style="clip-path:url(#SVGID_32_);">
			<g>
				<defs>
					
						<ellipse id="SVGID_109_" transform="matrix(0.9063 -0.4226 0.4226 0.9063 -12.1835 42.7302)" cx="90.3" cy="48.8" rx="20.6" ry="20.6"/>
				</defs>
				<clipPath id="SVGID_33_">
					<use xlink:href="#SVGID_109_"  style="overflow:visible;"/>
				</clipPath>
				<g style="clip-path:url(#SVGID_33_);">
					<linearGradient id="SVGID_34_" gradientUnits="userSpaceOnUse" x1="66.2584" y1="56.8944" x2="98.8991" y2="56.8944">
						<stop  offset="5.586592e-02" style="stop-color:#005A9F"/>
						<stop  offset="7.968338e-02" style="stop-color:#005CA3"/>
						<stop  offset="0.2588" style="stop-color:#0068B8"/>
						<stop  offset="0.4553" style="stop-color:#0071C8"/>
						<stop  offset="0.6808" style="stop-color:#0076D1"/>
						<stop  offset="1" style="stop-color:#0078D4"/>
					</linearGradient>
					<path style="fill:url(#SVGID_34_);" d="M67.8,40c1.9-2.2,7.8-6.2,11.2-3.9c3.1,2,3.6,6.5,1.1,8.5c-4,3.2-7.5,6.2-6.1,8.8
						c2.2,4.1,7.2,0.1,10.8-1.7s12.4-4.1,13.9,4c1.5,8.1-6.3,7.5-3.9,18.2s-0.3-0.6-3.9-3.4c-3.5-2.8-2.5-12.1-9.7-12.4
						c-3.5-0.1-10.4,2.1-13.6-4.2S67.8,40,67.8,40z"/>
					<linearGradient id="SVGID_35_" gradientUnits="userSpaceOnUse" x1="87.5853" y1="28.2591" x2="95.0016" y2="28.2591">
						<stop  offset="0" style="stop-color:#0078D4"/>
						<stop  offset="0.3192" style="stop-color:#0076D1"/>
						<stop  offset="0.5447" style="stop-color:#0071C8"/>
						<stop  offset="0.7412" style="stop-color:#0068B8"/>
						<stop  offset="0.9203" style="stop-color:#005CA3"/>
						<stop  offset="0.9441" style="stop-color:#005A9F"/>
					</linearGradient>
					<path style="fill:url(#SVGID_35_);" d="M90.3,25.1c-3.9,2.5-2.8,5.3-1.2,6.1c2.8,1.3,7-2.3,5.7-3.8S90.3,25.1,90.3,25.1z"/>
					<linearGradient id="SVGID_36_" gradientUnits="userSpaceOnUse" x1="91.3047" y1="44.4564" x2="119.6144" y2="44.4564">
						<stop  offset="0" style="stop-color:#0078D4"/>
						<stop  offset="0.3192" style="stop-color:#0076D1"/>
						<stop  offset="0.5447" style="stop-color:#0071C8"/>
						<stop  offset="0.7412" style="stop-color:#0068B8"/>
						<stop  offset="0.9203" style="stop-color:#005CA3"/>
						<stop  offset="0.9441" style="stop-color:#005A9F"/>
					</linearGradient>
					<path style="fill:url(#SVGID_36_);" d="M100.4,28.1c-1.1,2.2-3.5,1.7-6.9,5c-3.4,3.3-3.9,11.5,6.1,11.2c14.7-0.4,9,16.5,9,16.5
						s12.5-10.6,10.9-13.7C117.9,44.1,100.4,28.1,100.4,28.1z"/>
				</g>
			</g>
		</g>
	</g>
</g>
<g>
	<g>
		<path style="fill:#FCB913;" d="M97.8,24.6c-3.2,0.1-5.8,2.7-6,5.9c-0.1,1.4,0.4,2.7,1.1,3.7l4.1,6c0.4,0.6,1.3,0.6,1.7,0l4.2-5.9
			c0.7-1,1.2-2.2,1.2-3.5C104.2,27.4,101.3,24.6,97.8,24.6z"/>
		<circle style="fill:#FFFFFF;" cx="98" cy="30.7" r="2"/>
	</g>
</g>
<g>
	<g id="XMLID_8_">
		<g>
			<path style="fill:#FCB913;" d="M163.6,71.3l0,1.8c0,3.6-2.9,6.5-6.5,6.5l-8,0c-3.6,0-6.5-2.9-6.5-6.5l0-1.8
				c0-3.6,2.9-6.5,6.5-6.5l8,0C160.8,64.8,163.6,67.7,163.6,71.3z"/>
		</g>
	</g>
	<path style="fill:#FCB913;" d="M159.6,81.9c-0.3,0.1-0.5,0.1-0.8,0.1c-1.9,0-3.4-1.5-3.3-3.4c0-1.9,1.5-3.4,3.4-3.3
		c0.8,0,1.5,0.3,2.1,0.7c-1.5,0.3-2.6,1.6-2.6,3.2C158.2,80.3,158.8,81.3,159.6,81.9z"/>
	<circle style="fill:#FFFFFF;" cx="150.1" cy="72.5" r="0.9"/>
	<circle style="fill:#FFFFFF;" cx="153.2" cy="72.5" r="0.9"/>
	<circle style="fill:#FFFFFF;" cx="156.2" cy="72.6" r="0.9"/>
</g>
</svg>
