<svg xmlns="http://www.w3.org/2000/svg" viewBox="0 0 400 140"><defs><style>.cls-1{isolation:isolate;}.cls-2,.cls-8{fill:#fff;}.cls-3{fill:#aab5c5;}.cls-4{fill:#7750a3;}.cls-5,.cls-6{fill:none;stroke:#fff;stroke-miterlimit:10;stroke-width:4px;}.cls-6{stroke-linecap:round;}.cls-7{fill:#55a5e4;}.cls-8{opacity:0.2;}.cls-9{fill:#5e5e5e;}.cls-10{fill:#2e2e2e;}.cls-11{fill:#221f1f;}.cls-12{fill:#5e615f;}.cls-13{fill:#9273b6;}.cls-14{fill:#d1d3d4;opacity:0.5;mix-blend-mode:screen;}.cls-15{fill:#5d5f5e;}.cls-16{fill:#bad80a;}.cls-17{fill:#757575;}</style></defs><title>asp-core-overview-3</title><g class="cls-1"><g id="Shapes"><polygon class="cls-2" points="79 27 79 33 68 33 68 116 177 116 177 33 165 33 165 26 129 26 122.5 33.51 114.5 27 79 27"/><path id="outline" class="cls-3" d="M168,31V24H130.53c-2.93,0-6.27,5.06-8.53,7-2.26-1.94-4.49-7-7.41-7H77v7H66v87H179V31Zm-4-3v78H130c-2.37,0-5.08,3.46-7,4.55V33c1.87-1.53,4.47-5,7-5ZM81,28h33.2c2.46,0,4.94,3.47,6.8,5v77.55c-1.86-1.09-4.44-4.55-6.8-4.55H81ZM70,35h7v75h38c4,0,7,4,7,4H70Zm105,79H122s3-4,7.61-4H168V35h7Z"/><circle class="cls-4" cx="121.75" cy="69.47" r="32"/><g id="Layer_1" data-name="Layer 1"><ellipse class="cls-2" cx="120.24" cy="78.57" rx="5.88" ry="5.89"/><polyline class="cls-5" points="120 79 102 79 102 55 141 55 141 79 132 79"/><path class="cls-6" d="M110.68,85.51a11.8,11.8,0,1,0-.18-13.63"/></g><rect class="cls-7" x="235" y="28.25" width="84" height="46"/><polygon class="cls-8" points="319 53.16 319 28 293.85 28 319 53.16"/><polygon class="cls-9" points="295.77 85 259.47 85 261.6 83 293.64 83 295.77 85"/><path class="cls-10" d="M294.33,86H261c-1.54.63-1.57-.73-1.57-1h36.37C295.77,85.27,296,86.63,294.33,86Z"/><polygon class="cls-10" points="285.24 84 270 84 271.24 77 284 77 285.24 84"/><path class="cls-11" d="M320,28H235a2,2,0,0,0-2,2V75a2,2,0,0,0,2,2H320a2,2,0,0,0,2-2V30A2,2,0,0,0,320,28Zm-1,46H236V31h83Z"/><path class="cls-11" d="M366,100V58.63A1.63,1.63,0,0,0,364.37,57H306.63A1.63,1.63,0,0,0,305,58.63V100Z"/><path class="cls-11" d="M297.09,100c0-.45.38,1.87,2.73,2h70.45c1.82-.13,2.73-2.45,2.73-2V99H297Z"/><rect class="cls-12" x="335" y="58" width="1" height="1"/><rect class="cls-12" x="334" y="95" width="2" height="2"/><rect class="cls-13" x="308" y="60" width="55" height="34"/><polygon class="cls-14" points="363 60 342.12 60 363 79.54 363 60"/><rect class="cls-10" x="213" y="63" width="53" height="36" rx="2.16" ry="2.16"/><rect class="cls-3" x="216" y="66" width="47" height="30"/><polygon class="cls-15" points="264 81.58 265 81.74 265 80.49 264 80.64 264 81.58"/><polygon class="cls-14" points="263 85.33 263 66 241.88 66 263 85.33"/><path class="cls-10" d="M235.35,117.43a31.36,31.36,0,0,1-6.62.51,36.15,36.15,0,0,1-7.08-.51c-1-.25-1.65-.84-1.65-1.78V86.12c0-.95.63-1.52,1.69-1.68a56.41,56.41,0,0,1,7-.44,41.19,41.19,0,0,1,6.62.43c1.14.18,1.69.77,1.69,1.72v29.5C237,116.59,236.51,117.17,235.35,117.43Z"/><rect class="cls-16" x="221" y="88" width="15" height="26"/><circle class="cls-17" cx="228.23" cy="85.83" r="0.33"/><circle class="cls-17" cx="223.03" cy="86.09" r="0.26"/><polygon class="cls-14" points="236 100.98 236 88 221.83 88 236 100.98"/></g></g></svg>