<?xml version="1.0" encoding="utf-8"?>
<!-- Generator: Adobe Illustrator 22.0.1, SVG Export Plug-In . SVG Version: 6.00 Build 0)  -->
<svg version="1.1" id="Layer_1" xmlns="http://www.w3.org/2000/svg" xmlns:xlink="http://www.w3.org/1999/xlink" x="0px" y="0px"
	 viewBox="0 0 200 120" style="enable-background:new 0 0 200 120;" xml:space="preserve">
<path style="fill:#66AEE5;" d="M153.7,58H127l35.9,50.3c0.3,0.4,0.8,0.7,1.4,0.7h22.5c1.4,0,2.2-1.6,1.4-2.7L153.7,58z"/>
<linearGradient id="SVGID_10_" gradientUnits="userSpaceOnUse" x1="28.8739" y1="63.7275" x2="28.8739" y2="92.5795">
	<stop  offset="0" style="stop-color:#409640"/>
	<stop  offset="0.2789" style="stop-color:#3D923D"/>
	<stop  offset="0.5337" style="stop-color:#338733"/>
	<stop  offset="0.7782" style="stop-color:#227522"/>
	<stop  offset="1" style="stop-color:#0C5D0C"/>
</linearGradient>
<path style="fill:url(#SVGID_10_);" d="M46.3,72.8c0,0-5.9,4.9-10.3,10.2c0.8-3.4,1.3-8.1,1.2-14.3c0,0-3.4,6.3-5.6,12.6
	c-1.2-4.3-3.7-10.1-8.5-17.6c0,0,0.7,14,4.1,22.6c-3-2.3-7.9-4.9-15.9-7.3c0,0,13.2,14,20.1,13.5c0,0,0.2,0,0.5-0.1
	c0.1,0,0.2,0,0.2-0.1C34.2,91.8,40.3,88.7,46.3,72.8z"/>
<linearGradient id="SVGID_11_" gradientUnits="userSpaceOnUse" x1="29.8252" y1="109.1348" x2="29.8252" y2="88.7231">
	<stop  offset="0" style="stop-color:#99C9EE"/>
	<stop  offset="1" style="stop-color:#CCE4F6"/>
</linearGradient>
<path style="fill:url(#SVGID_11_);" d="M36.6,109.1H23.1c-1,0-1.9-0.7-2.1-1.8l-3.2-18.7h24l-3.2,18.7
	C38.5,108.4,37.6,109.1,36.6,109.1z"/>
<path style="fill:#99C9EE;" d="M40.1,107.1l5.5-85c0-1,0.8-1.9,1.9-1.9h115.2c1,0,1.9,0.8,1.9,1.9l-5.5,85c0,1-0.8,1.9-1.9,1.9H42
	C41,109,40.1,108.2,40.1,107.1z"/>
<path style="fill:#F3F2F1;" d="M155.3,28.2H55c-0.7,0-1.4,0.6-1.4,1.4l-5.5,70.1c0,0.7,0.6,1.4,1.4,1.4h100.3c0.7,0,1.4-0.6,1.4-1.4
	l5.5-70.1C156.7,28.8,156.1,28.2,155.3,28.2z"/>
<path style="fill:#E1DFDD;" d="M92.7,46v2.9h-4.5v3.1c0,0.8-0.6,1.4-1.4,1.4c-0.4,0-0.8-0.2-1-0.4c-0.3-0.3-0.4-0.6-0.4-1v-3.1H60.9
	v3.1c0,0.8-0.6,1.4-1.4,1.4c-0.4,0-0.8-0.2-1-0.4c-0.3-0.3-0.4-0.6-0.4-1v-3.1h-4.5V46h6V35.4h2.6V32h2.6v4.8h1.6V46h3.6
	c-0.2,0-0.4-0.2-0.5-0.4l-0.7-4.2h1c-1.3-0.9-2.4-2.1-2.4-2.1c1.8,0.5,2.9,1.1,3.5,1.6c-0.8-1.9-0.9-5-0.9-5
	c1.1,1.7,1.6,2.9,1.9,3.9c0.5-1.4,1.2-2.8,1.2-2.8c0,1.4-0.1,2.4-0.3,3.2c1-1.2,2.3-2.3,2.3-2.3c-0.7,1.9-1.4,2.9-2,3.5h1l-0.7,4.2
	c0,0.2-0.2,0.4-0.5,0.4h4.5v-7.2h-0.5v-1.6h13.3v1.6h-0.5V46H92.7z"/>
<g>
</g>
<g>
	<g>
		
			<linearGradient id="SVGID_12_" gradientUnits="userSpaceOnUse" x1="61.5275" y1="102.2763" x2="66.7298" y2="82.3038" gradientTransform="matrix(0.9151 -0.4032 0.4032 0.9151 -30.7185 32.6741)">
			<stop  offset="2.198492e-03" style="stop-color:#D2594D"/>
			<stop  offset="1" style="stop-color:#ED9583"/>
		</linearGradient>
		<path style="fill:url(#SVGID_12_);" d="M70.9,91.4c0,0.1,0.1,0.1,0.1,0.2c0.4,1.1,0.5,2.3,0.3,3.4c0,0.1-0.1,0.3-0.1,0.4
			c-0.4,1.6-1.5,2.9-3.1,3.7c-0.1,0-0.1,0.1-0.2,0.1s-0.1,0.1-0.2,0.1c-1.6,0.6-3.3,0.5-4.8-0.2c-0.1-0.1-0.2-0.1-0.3-0.2
			c-1-0.6-1.8-1.4-2.3-2.5c0-0.1-0.1-0.1-0.1-0.2c0-0.1-0.1-0.1-0.1-0.2c-0.4-1.1-0.5-2.3-0.3-3.4c0-0.1,0.1-0.3,0.1-0.4
			c0.4-1.6,1.5-2.9,3.1-3.7c0.1,0,0.1-0.1,0.2-0.1c0.1,0,0.1-0.1,0.2-0.1c1.6-0.6,3.3-0.5,4.8,0.2c0.1,0.1,0.2,0.1,0.3,0.2
			c1,0.6,1.8,1.4,2.3,2.5C70.9,91.3,70.9,91.4,70.9,91.4z"/>
	</g>
	<g>
		<g>
			
				<linearGradient id="SVGID_15_" gradientUnits="userSpaceOnUse" x1="64.0849" y1="86.6757" x2="62.7752" y2="104.3562" gradientTransform="matrix(0.9151 -0.4032 0.4032 0.9151 -30.7185 32.6741)">
				<stop  offset="6.634736e-03" style="stop-color:#E86E58"/>
				<stop  offset="1" style="stop-color:#D2594D"/>
			</linearGradient>
			<path style="fill:url(#SVGID_15_);" d="M65.8,93.9l0.5,1.2c1.6-0.7,3.4-0.6,4.9-0.1c0,0.1-0.1,0.3-0.1,0.4
				c-1.5-0.6-3.1-0.6-4.7,0l1.6,3.6c-0.1,0-0.1,0.1-0.2,0.1s-0.1,0.1-0.2,0.1l-1.6-3.6c-1.5,0.7-2.6,2-3.2,3.4
				c-0.1-0.1-0.2-0.1-0.3-0.2c0.6-1.5,1.8-2.8,3.4-3.6L65.5,94l-5.2,2.3c0-0.1-0.1-0.1-0.1-0.2c0-0.1-0.1-0.1-0.1-0.2l5.2-2.3
				l-0.5-1.2c-1.6,0.7-3.4,0.6-4.9,0.1c0-0.1,0.1-0.3,0.1-0.4c1.5,0.6,3.1,0.6,4.7,0l-1.6-3.6c0.1,0,0.1-0.1,0.2-0.1
				c0.1,0,0.1-0.1,0.2-0.1L65,92c1.5-0.7,2.6-2,3.2-3.4c0.1,0.1,0.2,0.1,0.3,0.2c-0.6,1.5-1.8,2.8-3.4,3.6l0.5,1.2l5.2-2.3
				c0,0.1,0.1,0.1,0.1,0.2c0,0.1,0.1,0.1,0.1,0.2L65.8,93.9z"/>
		</g>
	</g>
</g>
<path style="fill:#E0BB95;" d="M67.2,73.3c-2-0.5-2.5,1.3-2.6,1.9c0,0,3.3,10.5,4.1,12.8c0.9,2.4,1.8,6.6,1.6,8.4c0,0,0.8,0,1.6-0.7
	c0.5-3.6,0.8-5,0.6-8.2C72.1,81.9,69.9,74,67.2,73.3z"/>
<path style="fill:#2B88D8;" d="M72,83.1c-0.9-4.8-2.6-9.5-4.9-10.2c-2.4-0.6-4.6,1.5-3.5,5.4c0,0,2.5,1.6,3.7,5.8L72,83.1z"/>
<path style="fill:#E0BB95;" d="M68.2,99.4c-0.3,0-0.3-0.2-0.3-0.2s-0.4,0-0.4-0.1c-0.1-0.2,0.4-0.4,0.9-0.7c0.5-0.3,0.9-0.6,0.9-0.9
	c0.1-0.4,0.5-1.3,0.9-1.3c0.1,0,0.6-0.9,0.9-1.1c0.5-0.4,0.9,0.5,0.6,1s-1.6,2.4-2,2.8C69.5,99.2,68.4,99.5,68.2,99.4z"/>
<g>
	<g>
		<g>
			<path style="fill:#C7E0F4;" d="M129.4,41.8l-4.8,29.5c0,0-13.5,0.9-17.4,0.9c-4.5,0-16.2-0.9-16.2-0.9l-3.5-27.4
				c0-4.6,7.5-10.2,8.7-10.4l22.8,0C120.4,33.5,127.7,36.1,129.4,41.8z"/>
			<path style="fill:#C7E0F4;" d="M132.9,42.3c-2.1-4-5.9-7.7-9.9-8.5c-2.9-0.6-6.1-0.3-6.1-0.3s-1.3,13.7,2.9,14.6
				c5.5,1.3,6.2,7.3,6.8,8.7l3,9.3C139.2,59.5,135,46.1,132.9,42.3z"/>
			<path style="fill:#EAEAF3;" d="M117,33.5l-0.1,0.3c-0.3,1.3-1,2.5-1.9,3.4c-1.3,1.3-3.5,2.3-7.6,2.2c-4.1-0.1-8-2.4-8.7-5.6
				l-0.1-0.3H117z"/>
			<path style="fill:#9B643D;" d="M115.9,33.5c-0.3,1.1-0.8,2.1-1.6,2.9c-1.1,1.1-3.8,1.8-6.9,1.8c-3.1,0-7-2-7.6-4.7H115.9z"/>
			<g>
				<path style="fill:#9B643D;" d="M113.9,23.7c0-3.1-2.5-5.5-5.6-5.5l-1.6,0c-3.1,0-5.5,2.5-5.5,5.6l0,4c0,2.4,1.2,5.6,6.2,5.7
					c5,0.1,6.5-3.5,6.5-5.9L113.9,23.7z"/>
				<path style="fill:#9B643D;" d="M113.8,25.3l0,9.3c0,0-1.1,0.7-6.1,0.7c-4.9,0-6.4-0.2-6.4-0.2l-0.2-9.7L113.8,25.3z"/>
				<path style="fill:#9B643D;" d="M102.6,24.8c0,0.8-0.6,1.4-1.3,1.4c-0.7,0-1.3-0.6-1.3-1.4c0-0.8,0.6-1.4,1.3-1.4
					C102,23.4,102.6,24,102.6,24.8L102.6,24.8z"/>
				<path style="fill:#9B643D;" d="M115.2,24.7c0,0.8-0.6,1.4-1.3,1.4c-0.7,0-1.3-0.6-1.3-1.4c0-0.8,0.6-1.4,1.3-1.4
					C114.6,23.3,115.2,23.9,115.2,24.7L115.2,24.7z"/>
				
					<radialGradient id="SVGID_17_" cx="3366.5283" cy="426.6502" r="1.5316" fx="3365.0459" fy="426.265" gradientTransform="matrix(-0.4946 0.8691 -0.8261 -0.4701 2124.0928 -2698.8665)" gradientUnits="userSpaceOnUse">
					<stop  offset="0.1559" style="stop-color:#62462D"/>
					<stop  offset="0.4598" style="stop-color:#7C5434"/>
					<stop  offset="0.7895" style="stop-color:#93603B"/>
					<stop  offset="1" style="stop-color:#9B643D"/>
				</radialGradient>
				<path style="fill:url(#SVGID_17_);" d="M103.9,26.7c-0.3-1.2,0.5-2.3,1.7-2.6c1.2-0.3,2.4,0.4,2.6,1.6c0.3,1.2-0.5,2.3-1.7,2.6
					C105.3,28.6,104.2,27.8,103.9,26.7z"/>
				<g>
					
						<linearGradient id="SVGID_19_" gradientUnits="userSpaceOnUse" x1="106.4259" y1="77.8643" x2="106.2379" y2="69.7329" gradientTransform="matrix(1 -8.441204e-03 8.441204e-03 1 0.7395 -44.2303)">
						<stop  offset="0" style="stop-color:#594539"/>
						<stop  offset="1" style="stop-color:#9B643D"/>
					</linearGradient>
					<path style="fill:url(#SVGID_19_);" d="M113.8,22.8c-0.2,0-0.4,0-0.6,0c0,0.2,0,0.3,0,0.5l0,1.3c0,1.5-1.2,2.8-2.8,2.8l-5.7,0
						c-1.5,0-2.8-1.2-2.8-2.8l0-1.3c0-0.1,0-0.1,0-0.2c-0.2,0-0.4,0-0.6,0c0,0.2,0,0.4,0,0.6l0,4c0,2.4,1.2,5.6,6.2,5.7
						c5,0.1,6.5-3.5,6.5-5.9l0-4C113.9,23.4,113.9,23.1,113.8,22.8z"/>
				</g>
				
					<ellipse transform="matrix(1 -8.441345e-03 8.441345e-03 1 -0.2021 0.9278)" style="fill:#33312D;" cx="109.8" cy="24.4" rx="0.4" ry="0.6"/>
				
					<ellipse transform="matrix(1 -8.441345e-03 8.441345e-03 1 -0.2026 0.8876)" style="fill:#33312D;" cx="105.1" cy="24.4" rx="0.4" ry="0.6"/>
				<path style="fill:#9B643D;" d="M109.4,29.1c-0.1,0.3-0.3,0.5-0.5,0.6c-0.2,0.2-0.5,0.2-0.7,0.3c-0.2,0-0.5,0-0.8,0
					c-0.1,0-0.1,0-0.2-0.1c-0.1,0-0.1-0.1-0.2-0.1c-0.1,0-0.1-0.1-0.2-0.1c0-0.1-0.1-0.1-0.1-0.2c-0.1-0.1,0-0.2,0.1-0.3
					c0.1,0,0.1,0,0.2,0l0.1,0c0.1,0.1,0.3,0.1,0.4,0.1c0.2,0,0.3,0,0.5,0c0.2,0,0.3-0.1,0.5-0.1c0.1-0.1,0.3-0.1,0.4-0.3l0,0
					c0.1-0.1,0.3-0.1,0.4,0C109.4,28.9,109.4,29,109.4,29.1z"/>
				<path style="fill:#9B643D;" d="M107.1,27.1c-0.9,0-1.2-0.4-1.2-0.4c-0.1-0.3,0-0.3,0.5-1.2c0.3-0.6,0.9-1.5,0.9-1.5
					s1.3,1.3,1.3,2.1v0C108.5,26.8,107.1,27.1,107.1,27.1z"/>
			</g>
			<path style="fill:#797673;" d="M124.9,74.9C124.9,74.9,124.9,75,124.9,74.9c0,0.6,0,1.2,0,1.8c0,0,0,0,0,0c0,3.3-0.2,6.5-0.4,9.4
				c0,0,0,0,0,0c0,0.8-0.1,1.7-0.2,2.5c0,0.7-0.1,1.3-0.2,2c0,0.1,0,0.1,0,0.2c0,0.3-0.1,0.6-0.1,0.8c0,0.3-0.1,0.5-0.1,0.8
				c0,0.2,0,0.5-0.1,0.7c0,0.1,0,0.2,0,0.3c-0.2,1.4-0.4,2.8-0.5,4.1c-0.2,1.2-0.4,2.3-0.6,3.4h-13.6c-0.3-5.7-0.6-10.9-1-13.7
				c-0.5,2.8-0.9,8-1.2,13.7H93.7c-0.5-2.6-1-5.4-1.4-8.5c-0.2-1.7-0.4-3.4-0.6-5.2c0-0.3-0.1-0.7-0.1-1.1c-0.1-0.7-0.1-1.5-0.2-2.3
				c0-0.4-0.1-0.8-0.1-1.2c0-0.7-0.1-1.5-0.1-2.2c0,0,0,0,0,0c0,0,0,0,0,0c0,0,0,0,0-0.1v0c0,0,0,0,0,0c0-0.5,0-1-0.1-1.4l0,0
				c-0.1-2.4-0.1-5-0.1-7.7c0.4,0,0.9,0,1.5,0c0.6,0,1.4,0,2.2,0.1c0.2,0,0.5,0,0.7,0c0.8,0,1.7,0,2.6,0.1c3.2,0.1,6.7,0.2,9.4,0.2
				c4,0,9.9-0.3,14.2-0.6c0.2,0,0.3,0,0.5,0c0.5,0,1.1-0.1,1.5-0.1c0.1,0,0.3,0,0.4,0c0.3,0,0.5,0,0.8,0c0,0,0.1,0,0.1,0
				C124.9,72.3,124.9,73.6,124.9,74.9z"/>
			<path style="fill:#C7E0F4;" d="M82.6,42.3c2.1-4,5.9-7.9,9.9-8.5c3.4-0.5,6.1-0.3,6.1-0.3s2.8,13.6-3.3,15.2
				c-3.5,0.9-5.8,6.7-6.4,8.1l-3,9.3C76.4,59.5,80.6,46.1,82.6,42.3z"/>
		</g>
		<g>
			<path style="fill:#C8C6C4;" d="M80,101h-9.8c-0.1-0.3-0.1-0.5-0.2-0.8c-0.7-2.9-1.2-5.5-1.6-7.7c-0.4-2.6-0.7-4.8-0.8-6.6
				c0-0.8-0.1-1.4-0.1-2.1c0-1.6,0.1-2.8,0.2-3.6c0.2-1.2,0.4-1.7,0.4-1.7h1l4.4,0l5.9,0l0,1.3l0.1,2.8l0.2,8.8L80,101z"/>
			<linearGradient id="SVGID_20_" gradientUnits="userSpaceOnUse" x1="83.6693" y1="90.6492" x2="98.2739" y2="89.0998">
				<stop  offset="0.1368" style="stop-color:#C8C6C4"/>
				<stop  offset="0.7906" style="stop-color:#999D97"/>
			</linearGradient>
			<path style="fill:url(#SVGID_20_);" d="M91.9,101h-9.8c-0.8-3.1-1.6-6.3-2.3-9.4c-0.7-3-1.3-6-1.8-8.9c-0.1-0.9-0.3-1.8-0.4-2.6
				c0.3-0.1,1-0.1,1.9-0.1c0.9,0,2,0,3.2,0c2.5,0.1,5.3,0.2,7.1,0.3c0.1,0,0.1,0,0.2,0c0.6,0,1,0.1,1.3,0.1h0.1c0.1,0,0.2,0,0.2,0
				c0,0,0,0,0,0v0.1l0,3.5l0,2.1l0,1.1l0.1,5.3L91.9,101z"/>
			<g id="XMLID_3_">
				<g>
					<path style="fill:#66AEE5;" d="M73.1,45.7c-0.3,0.2-0.7,0.4-1,0.7c-3.2,2.4-5.3,6.3-5.3,10.6c0,0-0.9,17.4,1.2,21.6
						c3.2,6.1,21.5,5,26.1-0.2c1.3-1.5,0.3-21.4,0.3-21.4c0-4.1-1.9-7.8-4.8-10.2c-0.5-0.4-1-0.7-1.5-1.1H73.1z"/>
					<path style="fill:#FADCBD;" d="M73.1,45.7c0,0,3.2,1.4,7.7,1.5c4.5,0.1,7.4-1.5,7.4-1.5c-2.1-1.3-4.5-2-7.1-2h-0.9
						C77.5,43.6,75.1,44.4,73.1,45.7z"/>
				</g>
			</g>
			<radialGradient id="SVGID_22_" cx="73.6252" cy="61.4048" r="12.0173" gradientUnits="userSpaceOnUse">
				<stop  offset="0" style="stop-color:#977A61"/>
				<stop  offset="0.7814" style="stop-color:#F7B548"/>
			</radialGradient>
			<path style="fill:url(#SVGID_22_);" d="M66.4,66.7c-3,2.8-6.6,5.3-9.8,6.6c-0.4,0.2-1.9-2.2-1.9-3c0-0.1,3.2-2.1,5.8-5.3
				c2.5-3.1,3.8-9,4.9-11.6c2.1-5,4.9-6.6,8.6-8C74.2,45.3,73.7,59.9,66.4,66.7z"/>
			<radialGradient id="SVGID_24_" cx="80.8302" cy="40.9235" r="5.0639" gradientUnits="userSpaceOnUse">
				<stop  offset="0" style="stop-color:#B07E59"/>
				<stop  offset="8.336520e-02" style="stop-color:#BA8A66"/>
				<stop  offset="0.3553" style="stop-color:#D5AE8C"/>
				<stop  offset="0.6074" style="stop-color:#EAC7A7"/>
				<stop  offset="0.8302" style="stop-color:#F6D7B7"/>
				<stop  offset="1" style="stop-color:#FADCBD"/>
			</radialGradient>
			<polygon style="fill:url(#SVGID_24_);" points="77.9,46.6 82.9,47.1 83.2,38.4 79.2,38 			"/>
			<radialGradient id="SVGID_25_" cx="101.8463" cy="61.334" r="19.7294" gradientUnits="userSpaceOnUse">
				<stop  offset="0" style="stop-color:#977A61"/>
				<stop  offset="0.2404" style="stop-color:#B58C59"/>
				<stop  offset="0.7814" style="stop-color:#F7B548"/>
			</radialGradient>
			<path style="fill:url(#SVGID_25_);" d="M82.4,92.8c3.1,0.5,9.9,0.1,13.4-1c0-1.8,0.2-13.6-0.3-19.6c-0.6-6.9-1.1-16.4-1.2-16.8
				c0,0,0,0,0,0c-0.7-5.5-4.7-9.9-9.9-11.3c0,0-1.3,7.5-1.3,14.6C83.1,58.7,82.3,91.5,82.4,92.8z"/>
			<path style="fill:#F7B548;" d="M76.8,44.1c0,0-2.9,8.8-3.2,22.4c-0.2,7.5,0.2,25,0.2,26.2c-2,0.4-6.6,0-8.5-0.9
				c-0.1-1.3-0.2-12.8,0.1-21.9c0.2-7.3,0.7-11.3,0.8-11.7c0.3-1.9,1.3-6.1,1.3-6.1C68.8,47.4,71.5,45.4,76.8,44.1z"/>
			<path style="fill:#FADCBD;" d="M94.1,76.9c-2.8,1.4-4.4,3.7-4.4,3.7c-0.1,0.3,0.1,0.4,0.5,0.3c0.3-0.1,1.4-0.5,1.4-0.5l-0.3,3.1
				c-0.1,0.3,0.4,0.9,0.8,0.3c0.4-0.7,0.7-1.1,1.4-2.2c0.8-1.1,1.5-4.2,1.5-4.2L94.1,76.9z"/>
			<path style="fill:#F7B548;" d="M85.3,54.7c1.7,2.9,6.1,6.2,6.9,10.8c0.9,5.2-0.3,12.7-0.3,12.7l3,1.6c0,0,5.4-10,3.7-17.6
				c-2-9.5-6.4-17.1-13.7-18.1C84.4,44.1,83.7,52.1,85.3,54.7z"/>
			<path style="fill:#EFAB43;" d="M90.5,86.2h2.8c1.1,0,1.9-0.9,1.9-1.9v-3.7h-6.7v3.7C88.5,85.4,89.4,86.2,90.5,86.2z"/>
			<path style="fill:#EFAB43;" d="M68,85.9h2.8c1.1,0,1.9-0.9,1.9-1.9v-3.7h-6.7V84C66.1,85.1,66.9,85.9,68,85.9z"/>
			<path style="fill:#FADCBD;" d="M91.3,78.8c-0.4,0.4-0.9,0.8-1.3,1.2c-0.4,0.4-1.5,1.5-1.5,1.5c-0.1,0.3,0.6,0.2,1.6-0.6
				c0.7-0.6,2-0.4,2-0.4L91.3,78.8z"/>
			
				<ellipse transform="matrix(9.148875e-02 -0.9958 0.9958 9.148875e-02 38.5075 114.8574)" style="display:none;fill:#605D5A;" cx="82.2" cy="36.3" rx="0.8" ry="0.5"/>
			
				<ellipse transform="matrix(9.148875e-02 -0.9958 0.9958 9.148875e-02 34.3568 109.3744)" style="display:none;fill:#605D5A;" cx="77.1" cy="35.9" rx="0.8" ry="0.5"/>
			<g>
				
					<radialGradient id="SVGID_30_" cx="533.7598" cy="-1010.5378" r="3.8079" gradientTransform="matrix(0.7605 -0.6493 0.6493 0.7605 326.66 1153.6274)" gradientUnits="userSpaceOnUse">
					<stop  offset="0.1441" style="stop-color:#231F20"/>
					<stop  offset="0.957" style="stop-color:#33312D"/>
				</radialGradient>
				<circle style="fill:url(#SVGID_30_);" cx="75.1" cy="40" r="3.2"/>
				
					<radialGradient id="SVGID_31_" cx="3029.6384" cy="-872.1782" r="3.8079" gradientTransform="matrix(-0.7993 -0.6009 0.6009 -0.7993 3031.365 1162.819)" gradientUnits="userSpaceOnUse">
					<stop  offset="0.1441" style="stop-color:#231F20"/>
					<stop  offset="0.957" style="stop-color:#33312D"/>
				</radialGradient>
				<circle style="fill:url(#SVGID_31_);" cx="87.4" cy="40.4" r="3.2"/>
				
					<ellipse transform="matrix(9.148923e-02 -0.9958 0.9958 9.148923e-02 39.5341 112.2944)" style="fill:#33312D;" cx="81.3" cy="34.5" rx="7.9" ry="7.8"/>
				
					<ellipse transform="matrix(7.975592e-02 -0.9968 0.9968 7.975592e-02 38.8862 113.5853)" style="fill:#FADCBD;" cx="81" cy="35.7" rx="7.5" ry="5.7"/>
				<g>
					<path style="fill:#33312D;" d="M78.6,31.3c0.4-0.8,0.7-1.6,0.7-2.5c0.1-0.9,0-1.8-0.3-2.7c-0.3,0.1-0.7,0.2-1,0.4
						c-0.1,0.3-0.1,0.7-0.2,1C77.7,28.9,78,30.2,78.6,31.3z"/>
					<path style="fill:#33312D;" d="M79.3,28.8c-0.1,0.9-0.3,1.7-0.7,2.5c1.1,2.1,3.3,3.6,5.9,3.9c1.7,0.2,3.3-0.2,4.6-1
						c0.4-4.1-2.7-8.3-6.9-8.3c-1.1,0-2.2,0-3.2,0.3C79.3,27,79.4,27.9,79.3,28.8z"/>
					<path style="fill:#33312D;" d="M77.8,27.6c0-0.4,0.1-0.7,0.2-1c-2.2,1.1-3.5,2.5-4.1,4.2c-0.4,1.3-0.4,3.3-0.4,3.9
						c1.9-0.5,4.1-1.7,5-3.4C78,30.2,77.7,28.9,77.8,27.6z"/>
				</g>
				<path style="fill:#BC9369;" d="M81.8,40.5c-0.1,0.2-0.3,0.3-0.5,0.4c-0.2,0.1-0.4,0.2-0.6,0.2c-0.2,0-0.4,0-0.6,0
					c-0.2,0-0.4-0.1-0.6-0.2c-0.1-0.1-0.1-0.2,0-0.3c0-0.1,0.1-0.1,0.2-0.1l0,0c0.2,0,0.3,0,0.5,0c0.2,0,0.3,0,0.5-0.1
					c0.1,0,0.3-0.1,0.4-0.1c0.1,0,0.3-0.1,0.4-0.2l0,0c0.1-0.1,0.2,0,0.3,0.1C81.8,40.4,81.8,40.4,81.8,40.5z"/>
				
					<radialGradient id="SVGID_32_" cx="2740.552" cy="-49.1365" r="1.3538" gradientTransform="matrix(-1.1524 0.5306 -0.5814 -1.1148 3209.4624 -1470.9368)" gradientUnits="userSpaceOnUse">
					<stop  offset="0" style="stop-color:#B07E59"/>
					<stop  offset="8.336520e-02" style="stop-color:#BA8A66"/>
					<stop  offset="0.3553" style="stop-color:#D5AE8C"/>
					<stop  offset="0.6074" style="stop-color:#EAC7A7"/>
					<stop  offset="0.8302" style="stop-color:#F6D7B7"/>
					<stop  offset="1" style="stop-color:#FADCBD"/>
				</radialGradient>
				<radialGradient id="SVGID_33_" cx="79.6989" cy="37.8129" r="2.5634" gradientUnits="userSpaceOnUse">
					<stop  offset="0" style="stop-color:#B07E59"/>
					<stop  offset="0.4686" style="stop-color:#DAB392"/>
					<stop  offset="0.8594" style="stop-color:#FADCBD"/>
				</radialGradient>
				<path style="fill:url(#SVGID_32_);stroke:url(#SVGID_33_);stroke-width:0.3624;stroke-miterlimit:10;" d="M77.6,37
					c0.4-1.1,1.9-2,3-1.6c1.1,0.4,1.6,2.3,1.2,3.5c-0.3,1.1-2,1.6-3.2,1.2C77.6,39.7,77.2,38.1,77.6,37z"/>
				<path style="fill:#FADCBD;" d="M80.2,36.2c-0.1,0-0.6,1.1-0.9,1.6c-0.1,0.2-0.4,0.6,0.2,0.8c0.4,0.1,1.6,0.2,1.8,0.1
					C82.5,38.2,81.2,36.3,80.2,36.2z"/>
				<g transform="matrix( 0.980255126953125, -0.1976470947265625, 0.1976470947265625, 0.980255126953125, -1161,-115.85) ">
					<g>
						<g id="Layer3_0_MEMBER_18_FILL_4_">
							<path style="fill:#33312D;" d="M1189.3,395.8c-0.1,0-0.2-0.1-0.3-0.2c-0.1-0.2-0.1-0.3-0.1-0.5s0.1-0.3,0.2-0.5
								c0.1-0.1,0.2-0.2,0.3-0.2c0.1,0,0.2,0.1,0.3,0.2c0.1,0.1,0.1,0.3,0,0.5c0,0.2-0.1,0.4-0.2,0.5
								C1189.6,395.7,1189.4,395.8,1189.3,395.8z"/>
						</g>
					</g>
				</g>
				<g transform="matrix( 0.980255126953125, -0.1976470947265625, 0.1976470947265625, 0.980255126953125, -1161,-115.85) ">
					<g>
						<g id="Layer3_0_MEMBER_18_FILL_1_">
							<path style="fill:#33312D;" d="M1184.5,394.7c-0.1,0-0.2-0.1-0.3-0.2c-0.1-0.2-0.1-0.3-0.1-0.5c0-0.2,0.1-0.3,0.2-0.5
								c0.1-0.1,0.2-0.2,0.3-0.2c0.1,0,0.2,0.1,0.3,0.2c0.1,0.1,0.1,0.3,0,0.5c0,0.2-0.1,0.4-0.2,0.5
								C1184.8,394.7,1184.6,394.7,1184.5,394.7z"/>
						</g>
					</g>
				</g>
			</g>
		</g>
		<g>
			<linearGradient id="SVGID_34_" gradientUnits="userSpaceOnUse" x1="68.7063" y1="94.7959" x2="49.6635" y2="99.6512">
				<stop  offset="9.417849e-02" style="stop-color:#312E2E"/>
				<stop  offset="0.261" style="stop-color:#454241"/>
				<stop  offset="0.5561" style="stop-color:#615E5C"/>
				<stop  offset="0.8126" style="stop-color:#73706D"/>
				<stop  offset="1" style="stop-color:#797673"/>
			</linearGradient>
			<path style="fill:url(#SVGID_34_);" d="M60.7,95.7l-0.2,0.9L60,99.9l-0.2,1.1h-8.6c-0.2-1.1-0.3-2.1-0.4-2.9
				c0-0.3-0.1-0.6-0.1-0.8c-0.1-1.1-0.2-1.8-0.2-1.8l1.3-0.2l2.8-0.5C54.5,94.8,61.2,94.8,60.7,95.7z"/>
			<g style="display:none;">
				<path style="display:inline;fill:#5D4033;" d="M59.8,60.3c0-0.1,0.1-0.2,0.2-0.3c0.1-0.1,0.3-0.1,0.4,0c0.2,0.1,0.4,0.3,0.4,0.5
					c0,0,0,0.1-0.1,0.1c0,0,0,0,0,0c-0.1-0.1-0.3-0.3-0.4-0.3C60.2,60.2,60.1,60.2,59.8,60.3L59.8,60.3
					C59.9,60.3,59.9,60.3,59.8,60.3C59.8,60.3,59.8,60.3,59.8,60.3z"/>
			</g>
			<g style="display:none;">
				<path style="display:inline;fill:#5D4033;" d="M57,60.3c0-0.1,0.1-0.2,0.2-0.3c0.1-0.1,0.3-0.1,0.4,0c0.2,0.1,0.4,0.3,0.4,0.5
					c0,0,0,0.1-0.1,0.1c0,0,0,0,0,0c-0.1-0.1-0.3-0.3-0.4-0.3C57.4,60.2,57.3,60.2,57,60.3L57,60.3C57.1,60.3,57.1,60.3,57,60.3
					C57,60.3,57,60.3,57,60.3z"/>
			</g>
			<path style="fill:#E0BB95;" d="M53.7,72.7c2-0.6,2.4,1.2,2.5,1.9c0,0-3.2,8.9-3.7,11.3c-0.6,2.5-1.2,6.7-0.6,11
				c0,0,0,0.3-1.5,0.4c-1.8-4.9-2.2-8.5-1.9-12.4C49,79.3,51.1,73.5,53.7,72.7z"/>
			<linearGradient id="SVGID_35_" gradientUnits="userSpaceOnUse" x1="51.7831" y1="76.7864" x2="59.1812" y2="80.8551">
				<stop  offset="5.997785e-04" style="stop-color:#2B88D8"/>
				<stop  offset="0.8557" style="stop-color:#404C91"/>
			</linearGradient>
			<path style="fill:url(#SVGID_35_);" d="M48.7,82.5c0.3-2.9,2.8-9.8,6.1-10.6c3.2-0.8,2.2,1.8,2,2.7c0,0-1.9,5.5-3,9L48.7,82.5z"
				/>
			<path style="fill:#797673;" d="M67.4,96.7c0,1.4,0,2.8-0.1,4.3H56.8c-0.2-0.3-0.4-0.7-0.7-1c-1.1-1.7-2-3.1-2-3.1
				s3.2-0.2,6.4-0.3C63.7,96.5,66.9,96.4,67.4,96.7C67.4,96.7,67.4,96.7,67.4,96.7z"/>
			<linearGradient id="SVGID_36_" gradientUnits="userSpaceOnUse" x1="61.8333" y1="86.6516" x2="79.314" y2="92.849">
				<stop  offset="5.997785e-04" style="stop-color:#2B88D8"/>
				<stop  offset="0.8557" style="stop-color:#404C91"/>
			</linearGradient>
			<path style="fill:url(#SVGID_36_);" d="M69,80.2c0-1.9,0.7-4.1-0.6-6.1c-1.1-1.8-3.9-2.2-3.9-2.2c-3-0.8-5.3-0.7-5.3-0.7
				c-2-0.1-4,0.4-4.9,0.9c-0.7,0.4-2.5,5.2-3.4,10.6c-1,6.3-0.9,14.8-0.9,14.8s2.7,2.5,7.6,2.4c6.1-0.1,6.9-2.6,9.7-2.9
				c0-2.4-0.9-8-0.5-10.9C67.4,83.2,69,80.2,69,80.2z"/>
			<path style="fill:#FADCBD;" d="M57.4,71.2c-1.2,1.5-1.9,4.2-1.9,4.2c-1.2-0.2,0.2-2.7-0.6-3c-0.9-0.2-2.6,1.4-2.6,1.4
				c-0.6,1-1.1,1.8-1.7,1.8c-0.3,0,0.8-2,1.1-2.9c0.2-0.6,2.7-2.8,4.4-2.8C58.1,70,57.4,71.2,57.4,71.2z"/>
			
				<linearGradient id="SVGID_37_" gradientUnits="userSpaceOnUse" x1="-524.4495" y1="205.8436" x2="-523.4121" y2="199.1287" gradientTransform="matrix(0.7236 6.202698e-02 -9.737097e-02 0.9952 459.1792 -99.676)">
				<stop  offset="0" style="stop-color:#E0BB95"/>
				<stop  offset="0.9997" style="stop-color:#C49A6C"/>
			</linearGradient>
			<path style="fill:url(#SVGID_37_);" d="M57.6,71.3c-0.5,2.8,4.2,3,4.6,0.8c0.4-1.9,0.4-3,0.8-5.1c0.2-0.7-4.1-1.4-4.5-0.6
				C58,67.5,57.9,69.7,57.6,71.3z"/>
			<g>
				<path style="fill:#3A312E;" d="M55.3,61.4l1.8,0.5l0-0.1c0.3-1.1-0.4-2.2-1.5-2.5c0,0-0.6,0.1-1.1-0.1c-0.5-0.2-0.7-0.4-0.7-0.4
					l0,0.1C53.6,59.9,54.2,61.1,55.3,61.4z"/>
				<path style="fill:#3A312E;" d="M59.4,65.6l3.6,1c1.6,0.4,3.3-0.5,3.7-2.1l0-0.1c0.4-1.5-0.5-3.1-2-3.6l-3.7-1
					c-1.4-0.4-2.9,0.5-3.3,1.9l-0.2,0.7C57.1,63.7,58,65.2,59.4,65.6z"/>
				<circle style="fill:#E0BB95;" cx="64.6" cy="66.6" r="1.7"/>
				<path style="fill:#E0BB95;" d="M64,67.9l1.3-3.5c0.3-1.1-2-4.2-2-4.2l-4.1-1.2c-2.3-0.2-3.4,2.4-3.9,4.1
					c-0.5,1.8-0.7,3.4-0.5,4.5c0.4,1.9,1.3,2.5,2.5,3C59.9,71.5,62.3,70.7,64,67.9z"/>
				<path style="fill:#3A312E;" d="M64.2,57.9c-1.8-0.8-4.2-0.8-5.8-1.1c-1.2-0.3-1.9-1.9-1.9-1.9s-1.1,0.9-1.4,2.1s0.5,3.6,3.7,4.5
					l3.5,1c-0.1,0.1-0.3,0.3-0.6,0.4c-0.2,0.1-0.5,0.1-0.5,0.1c0.3,0.8,1,1.2,1.8,1.3c0,1,0.5,1.9,1.3,2.1c0.8-0.6,1.6-2.1,1.6-3.1
					c0.2-0.3,0.5-0.9,0.7-1.8C66.9,59.7,66.1,58.8,64.2,57.9z"/>
				<g style="opacity:0.7;">
					<path style="fill:#9B643D;" d="M60.1,68.2c-0.1,0.2-0.2,0.4-0.4,0.5c-0.2,0.1-0.4,0.2-0.7,0.3c-0.2,0-0.5,0-0.7-0.1
						c-0.2-0.1-0.4-0.3-0.5-0.5c0-0.1,0-0.2,0.1-0.2c0,0,0.1,0,0.1,0l0,0c0.2,0,0.4,0.1,0.5,0.1c0.2,0,0.3,0,0.4,0
						c0.1,0,0.3,0,0.4-0.1c0.1,0,0.3-0.1,0.5-0.2l0,0C60,68,60.1,68,60.1,68.2C60.1,68.1,60.1,68.1,60.1,68.2z"/>
				</g>
				
					<radialGradient id="SVGID_38_" cx="-104.7218" cy="605.8231" r="1.6438" fx="-103.9816" fy="605.6111" gradientTransform="matrix(0.7935 0.2054 -0.1907 0.7369 256.4551 -358.8946)" gradientUnits="userSpaceOnUse">
					<stop  offset="0" style="stop-color:#9B643D"/>
					<stop  offset="0.4904" style="stop-color:#BE916A"/>
					<stop  offset="1" style="stop-color:#E0BB95"/>
				</radialGradient>
				<circle style="fill:url(#SVGID_38_);" cx="57.7" cy="65.9" r="1.6"/>
				
					<ellipse transform="matrix(0.2612 -0.9653 0.9653 0.2612 -17.5857 107.3242)" style="fill:#191203;" cx="61.3" cy="65.2" rx="0.6" ry="0.4"/>
				<path style="fill:#E0BB95;" d="M58.5,64.5c-0.1,0-0.8,0.8-1.2,1.2c-0.1,0.2-0.5,0.5,0,0.8c0.3,0.2,1.4,0.6,1.6,0.5
					C60.2,66.8,59.5,64.8,58.5,64.5z"/>
				
					<ellipse transform="matrix(0.2612 -0.9653 0.9653 0.2612 -19.761 102.7036)" style="fill:#191203;" cx="57.2" cy="64.3" rx="0.6" ry="0.4"/>
			</g>
		</g>
		<g>
			<g>
				<g>
					<path style="fill:#3A312E;" d="M117.8,80.5c-0.2,6.8,6.4,12.4,14.7,12.6c8.3,0.1,14.1-5.1,14.3-11.9
						c0.2-6.8-5.4-12.6-13.7-12.7C124.8,68.3,118,73.7,117.8,80.5z"/>
					
						<ellipse transform="matrix(4.211948e-02 -0.9991 0.9991 4.211948e-02 71.0361 187.9972)" style="fill:#3A312E;" cx="133.6" cy="57" rx="8.9" ry="7.6"/>
					<path style="fill:#3A312E;" d="M119.6,74.9c5.9-10,5.1-15.7,6.7-20.6c2.6-7.7,12.4-7.6,14.7,0.3c1.4,4.8-0.6,10.9,4.6,21
						C146.7,77.8,118,77.7,119.6,74.9z"/>
				</g>
				<path style="fill:#2B88D8;" d="M145.4,101h-12.5c0-0.6-0.1-1.1-0.1-1.6c0,0,0,0,0-0.1c-0.1-2.5-0.2-4.1-0.2-4.6
					c0-0.6,0-1.2,0.1-1.7c0-0.2,0.1-0.5,0.2-0.7c0.1-0.4,0.2-0.7,0.3-1c0.2-0.5,0.4-1,0.8-1.5c2.1-3.2,6.4-3.5,9-0.5
					c0.5,0.6,1,1.4,1.3,2.3c0.1,0.2,0.2,0.5,0.2,0.7C145.1,94.6,145.4,97.5,145.4,101z"/>
				<g transform="matrix( 1.042236328125, 0.2442474365234375, -0.2442474365234375, 1.042236328125, -158.1,-258.9) ">
					<g>
						<g id="Layer1_2_FILL_45_">
							<path style="fill:#BF8F68;" d="M352.7,231.6l0.1-0.6c0.1-0.4,0.1-0.8,0.2-1c0.1-0.2,0.2-0.3,0.3-0.3c0.1,0,0.2,0.1,0.3,0.4
								c0.2,0.6,0.2,1.2,0.3,1.7c0,0.3,2.3,0.6,1.1,3.2c-0.1,0.2-0.5-0.4-1-0.8C353.3,233.8,352.7,231.6,352.7,231.6z"/>
						</g>
					</g>
				</g>
				<g id="phone_1_">
					<g id="Layer3_59_FILL_10_">
						<path style="fill:#847F7D;" d="M159.6,61.4c0-0.1-0.5-0.5-0.6-0.5l-1.8,0c-0.1,0-0.4,0-0.6,0.1c-0.1,0.1-0.2,0.4-0.3,0.6
							l-3,8.6c-0.1,0.2-0.1,0.4-0.1,0.5c0,0.2,0.7,0.5,0.8,0.5l1.5,0c0.1,0,0.2,0,0.4-0.2c0.1-0.1,0.2-0.3,0.3-0.5l3.2-8.4
							C159.5,61.9,159.6,61.6,159.6,61.4z"/>
						<path style="fill:#595553;" d="M159.6,61.5c0-0.1-0.1-0.2-0.2-0.2l-1.7-0.1c-0.1,0-0.2,0.1-0.3,0.2c-0.1,0.1-0.2,0.3-0.3,0.5
							l-3.1,8.5c-0.1,0.2-0.1,0.4-0.1,0.5c0,0.1,0.1,0.2,0.2,0.2l1.7,0.1c0.1,0,0.2-0.1,0.3-0.2c0.1-0.1,0.2-0.3,0.3-0.5l3.1-8.5
							C159.6,61.9,159.7,61.7,159.6,61.5z"/>
					</g>
					<g>
						<g id="Layer3_61_FILL_1_">
							<path style="fill:#96938F;" d="M158.4,62.5c0.1-0.1,0.2-0.2,0.2-0.4c0.1-0.2,0.1-0.3,0.1-0.4c0-0.1-0.1-0.2-0.1-0.2
								c-0.1,0-0.2,0-0.2,0.2c-0.1,0.1-0.2,0.2-0.2,0.4c-0.1,0.2-0.1,0.3-0.1,0.4c0,0.1,0.1,0.2,0.1,0.2
								C158.2,62.6,158.3,62.6,158.4,62.5z"/>
						</g>
					</g>
				</g>
				<path style="fill:#BF8F68;" d="M157.2,64.9c-0.2,0.1,0.4,1.1,0.4,1.1l0,0.6l-0.7-0.2c0,0-1,0.2-1.3,0.3c-0.3,0.1-0.5,0.8-0.6,1
					c-0.1,0.2-0.2,1-0.1,1.1c0.2,0.3,0.8,0.5,0.8,0.5s0.9,0.4,0.7,0.3c-0.6-0.2-1.6,0.7-1.6,1.4c0,0.3-0.4,0.7-0.4,0.7l0.7,0.3
					c0,0,0.3-0.4,0.4-0.6c0.4-0.5,1.1-0.6,2.1-1.3c0.1-0.1,0.7-0.7,0.7-0.8c0-0.1,0.1-2.3,0-2.5c0-0.1-0.1-1-0.2-1.1
					C158.1,65.6,157.5,64.7,157.2,64.9z"/>
				<radialGradient id="SVGID_39_" cx="135.0601" cy="78.8601" r="10.7977" gradientUnits="userSpaceOnUse">
					<stop  offset="0.1733" style="stop-color:#C27835"/>
					<stop  offset="0.8096" style="stop-color:#F7B548"/>
				</radialGradient>
				<path style="fill:url(#SVGID_39_);" d="M148.2,77.2c-2.3,1.2-6.4-8.8-6.4-8.8c-2.1-4.8-5.6-3.5-7.1-2.4c-1.4,1-0.6,2.9,0.1,4.5
					c0,0,4.1,8.1,11.3,12.2c3.9,2.2,8.9-8,9.3-10.5c0.1-0.7-1.8-1.2-1.8-1.2S150.1,76.1,148.2,77.2z"/>
				<path style="fill:#2B88D8;" d="M142.6,89.3c0,0-3.9,6.1-9,10.5c-5.1-3.1-10.4-9.1-10.4-9.1L142.6,89.3z"/>
				<path style="fill:#2B88D8;" d="M133.9,99.5C133.9,99.5,133.9,99.5,133.9,99.5c0,0.5,0,1-0.1,1.5h-12.5c0-2.2,0-4.2,0.2-5.9
					c0,0,0,0,0,0c0.1-0.6,0.2-1.2,0.3-1.8c0.1-0.3,0.1-0.6,0.2-0.8c0,0,0,0,0,0c0.1-0.2,0.1-0.4,0.2-0.6c0-0.1,0.1-0.2,0.1-0.3
					c0.2-0.5,0.4-1,0.7-1.4c0.4-0.6,0.8-1.1,1.3-1.5c2.5-2.2,6.3-1.5,8.2,1.4c0.3,0.4,0.5,0.9,0.7,1.4c0.1,0.3,0.2,0.7,0.3,1
					c0.1,0.2,0.1,0.4,0.1,0.6c0.1,0.6,0.2,1.2,0.2,1.8C134,95.3,134,97,133.9,99.5z"/>
				<radialGradient id="SVGID_41_" cx="114.4693" cy="77.3119" r="16.1102" gradientUnits="userSpaceOnUse">
					<stop  offset="0.1733" style="stop-color:#C27835"/>
					<stop  offset="0.8096" style="stop-color:#F7B548"/>
				</radialGradient>
				<path style="fill:url(#SVGID_41_);" d="M144.4,92.3c-0.6-0.1-18.5,0.3-22.4,0.2c0-0.3,0.4-2.3,3.3-7.9c0.2-0.4,0.3-0.8,0.4-1.1
					c0.8-2.8-0.3-5.9-1-8.9c-0.7-1.8-0.8-2.7-0.8-3.9c-0.1-3.8,3.5-7.3,9.5-6.9c5.1,0.4,7.7,2.4,8,7.3c0.2,3.9-1.3,8-0.7,11.3
					c0.1,0.5,0.3,1,0.5,1.5C142.4,86.1,143.7,89.6,144.4,92.3z"/>
				<path style="fill:#2B88D8;" d="M144.4,92.3c-0.3,0-5.5,7.1-10.8,7.2c-4.8,0.1-9.7-7-11.6-7.1c0-0.3,0.4-2.3,3.3-7.9
					c0.2-0.4,0.3-0.8,0.4-1.1c2.5-0.4,9.2-1.4,15.1-1.1c0.1,0.5,0.3,1,0.5,1.5C142.4,86.1,143.7,89.6,144.4,92.3z"/>
				<path style="fill:#A57653;" d="M131.5,62.5l0-4l4-0.1l0,3.9c0,0.9,0.1,1.3,1.1,1.8c1.2,0.5-1.1,1.1-2.9,1.1
					c-1.8,0-4.3-0.7-3.4-1.1C131,63.9,131.6,63.6,131.5,62.5z"/>
				<path style="fill:#A57653;" d="M133.7,65.6c-1.2-0.1-4.3-1.1-4.9-1.4c1.4-0.5,3.2-0.7,4.7-0.6c1.6,0.1,3.6,0.6,4.8,1.3
					C137.1,65.4,135.2,65.7,133.7,65.6z"/>
				<g transform="matrix( 1.042236328125, 0.2442474365234375, -0.2442474365234375, 1.042236328125, -158.1,-258.9) ">
					<g>
						<g id="Layer1_2_FILL_43_">
							<path style="fill:#BF8F68;" d="M329.2,259l-0.8,1.2l1,1.7c0.2,0.4,0.5,0.8,0.9,1.1c0.3,0.3,0.6,0.6,0.8,0.7
								c0.2,0.1,0.4,0.3,0.8,0.6c0.4,0.2-0.1-4-0.6-4.3L329.2,259z"/>
						</g>
					</g>
				</g>
				<path style="fill:#F7B548;" d="M122.6,79.5c3.6-4.7,7.9-9.3,7.9-9.3c1.5-1,1.6-4.1,0.3-5.3c-1.2-1.2-3.3-0.9-4.5,0.3
					c0,0-4.1,5.3-8.9,12.8c-5.7,9,1.6,14.1,3.8,16.2c0,0,1.3-1.7,1.4-2.1C120.1,86.2,118.4,85,122.6,79.5z"/>
				
					<linearGradient id="SVGID_42_" gradientUnits="userSpaceOnUse" x1="133.5042" y1="59.7473" x2="133.5042" y2="64.782" gradientTransform="matrix(1 -1.573893e-03 -1.573893e-03 0.8958 9.544413e-02 6.3196)">
					<stop  offset="0" style="stop-color:#8F5C37"/>
					<stop  offset="0.2855" style="stop-color:#94623D"/>
					<stop  offset="0.6725" style="stop-color:#A1724E"/>
					<stop  offset="0.7533" style="stop-color:#A57653"/>
				</linearGradient>
				<polygon style="fill:url(#SVGID_42_);" points="135.5,59.3 135.5,64.6 131.5,64.7 131.5,59.3 				"/>
				
					<ellipse transform="matrix(0.1029 -0.9947 0.9947 0.1029 65.7875 192.3283)" style="fill:none;stroke:#F8C954;stroke-width:0.444;stroke-miterlimit:10;" cx="139.5" cy="59.7" rx="1" ry="1"/>
				<path style="fill:#A57653;" d="M131.5,59.2l-2,0.1c-0.8,0-1.5-0.6-1.6-1.4v0c0-0.8,0.6-1.5,1.5-1.6l2-0.1L131.5,59.2z"/>
				<path style="fill:#A57653;" d="M129.6,56.2c0.1,3.8,2.5,6.8,5.3,6.7c2.8-0.1,5-3.3,4.9-7.1c-0.1-3.8-2.5-6.5-5.3-6.4
					C131.7,49.5,129.5,52.4,129.6,56.2z"/>
				
					<ellipse transform="matrix(0.9992 -3.941524e-02 3.941524e-02 0.9992 -2.1092 5.2954)" style="fill:#3A312E;" cx="133.2" cy="56.1" rx="0.5" ry="0.8"/>
				<g>
					
						<radialGradient id="SVGID_43_" cx="5596.3809" cy="356.6562" r="3.2842" gradientTransform="matrix(1.004 3.523893e-02 -4.865506e-02 1.0484 -5467.333 -513.7576)" gradientUnits="userSpaceOnUse">
						<stop  offset="0.1896" style="stop-color:#805C3F"/>
						<stop  offset="0.8438" style="stop-color:#A57653"/>
					</radialGradient>
					<path style="fill:url(#SVGID_43_);" d="M135,53.6l0.1,1.6c0.1,0.8,0.6,1.4,0.9,1.7c0.2,0.2,0.3,0.6,0.1,0.9
						c-0.1,0.1-0.6,0.5-0.6,0.9l0.1,1.5l3.1-0.1l-0.4-6.8L135,53.6z"/>
				</g>
				<g>
					<path style="fill:#9B643D;" d="M136.4,60c-0.1,0.2-0.4,0.4-0.6,0.4c-0.2,0.1-0.5,0.1-0.7,0c-0.2,0-0.5-0.1-0.7-0.3
						c-0.2-0.1-0.4-0.3-0.4-0.6c0,0,0-0.1,0.1-0.1c0,0,0.1,0,0.1,0l0,0c0.1,0.2,0.3,0.2,0.4,0.3c0.2,0.1,0.4,0.1,0.5,0.1
						c0.2,0,0.4,0,0.6,0c0.2,0,0.4,0,0.5-0.1l0,0C136.4,59.9,136.4,59.9,136.4,60C136.4,60,136.4,60,136.4,60z"/>
				</g>
				<path style="fill:#3A312E;" d="M136.8,48.8c0,0-0.4,2.6-3.3,3.8c-4.1,1.9-3.9,4.3-3.9,4.3s-2.4-2.8,0.3-6.7
					C132.6,46.2,136.8,48.8,136.8,48.8z"/>
				
					<ellipse transform="matrix(0.1029 -0.9947 0.9947 0.1029 56.4143 182.7269)" style="fill:none;stroke:#F8C954;stroke-width:0.444;stroke-miterlimit:10;" cx="129.5" cy="60.1" rx="1" ry="1"/>
				
					<ellipse transform="matrix(1 -8.908611e-03 8.908611e-03 1 -0.4932 1.2259)" style="fill:#3A312E;" cx="137.4" cy="56" rx="0.5" ry="0.8"/>
			</g>
		</g>
	</g>
</g>
<g>
	<linearGradient id="SVGID_44_" gradientUnits="userSpaceOnUse" x1="147.0163" y1="96.1459" x2="147.0018" y2="85.0002">
		<stop  offset="0" style="stop-color:#373747"/>
		<stop  offset="0.6911" style="stop-color:#63627F"/>
	</linearGradient>
	<path style="fill:url(#SVGID_44_);" d="M151.2,96.9v4.1h-8.3c0.4-1.9,0.3-4.4,0.2-7.2c-0.1-1.6,0-3.3,0-3.3l2,0.5
		c0,0,0.7-0.2,1-0.3c0.6-0.1,1.1-0.1,1.6,0l2.1-1l0.4,2.8C150.4,94.2,150.7,95.5,151.2,96.9z"/>
	
		<ellipse transform="matrix(0.9924 -0.1231 0.1231 0.9924 -10.3198 18.5664)" style="fill:#F9DC08;" cx="145.1" cy="92.8" rx="0.4" ry="0.5"/>
	
		<ellipse transform="matrix(0.9924 -0.1231 0.1231 0.9924 -10.2481 18.9495)" style="fill:#F9DC08;" cx="148.2" cy="92.4" rx="0.4" ry="0.5"/>
	<path style="fill:#120B09;" d="M146,93.6c0-0.2,0.3-0.3,0.6-0.3c0.3,0,0.6,0,0.6,0.2c0,0.2-0.2,0.6-0.5,0.7S146,93.8,146,93.6z"/>
	
		<line style="fill:none;stroke:#000002;stroke-width:0.3951;stroke-linecap:round;stroke-miterlimit:10;" x1="146.8" y1="95" x2="146.7" y2="94.1"/>
</g>
</svg>
