<?xml version="1.0" encoding="utf-8"?>
<!-- Generator: Adobe Illustrator 22.0.1, SVG Export Plug-In . SVG Version: 6.00 Build 0)  -->
<svg version="1.1" id="Layer_1" xmlns="http://www.w3.org/2000/svg" xmlns:xlink="http://www.w3.org/1999/xlink" x="0px" y="0px"
	 viewBox="0 0 200 120" style="enable-background:new 0 0 200 120;" xml:space="preserve">
<path style="fill:#A5B9D1;" d="M21.8,80.1c0.6,1.2,6.1,11.8,13.9,16.4c0.1,0,0.1,0,0.2,0L48.5,85c0.1-0.1,0.1-0.2,0-0.3
	c-1.4-0.8-10-6.3-14.5-15.4c0-0.1-0.2-0.1-0.3-0.1L21.9,79.9C21.8,79.9,21.8,80,21.8,80.1z"/>
<g>
	<defs>
		<path id="SVGID_7_" d="M21.8,80.1c0.6,1.2,6.1,11.8,13.9,16.4c0.1,0,0.1,0,0.2,0L48.5,85c0.1-0.1,0.1-0.2,0-0.3
			c-1.4-0.8-10-6.3-14.5-15.4c0-0.1-0.2-0.1-0.3-0.1L21.9,79.9C21.8,79.9,21.8,80,21.8,80.1z"/>
	</defs>
	<clipPath id="SVGID_18_">
		<use xlink:href="#SVGID_7_"  style="overflow:visible;"/>
	</clipPath>
</g>
<path style="fill:#2B579A;" d="M33.3,87.5c-5.6,1.9-11.2,3.9-16.7,5.8c-0.2,0.1-0.4,0-0.5-0.2c-3.8-6.3-6.1-13.7-6.6-21.6
	c0-0.2,0.1-0.4,0.3-0.4c5.2-1.7,10.4-3.5,15.6-5.2c0.3-0.1,0.5,0.1,0.6,0.4c0.9,7.6,3.6,14.7,7.6,20.7
	C33.7,87.1,33.6,87.4,33.3,87.5z"/>
<g>
	<path style="fill:#FFFFFF;" d="M24.2,72.6c-3.7,1.2-7.4,2.5-11.1,3.7c-0.3,0.1-0.6,0-0.6-0.2c0,0,0,0,0,0c0-0.2,0.2-0.5,0.5-0.6
		c3.7-1.2,7.4-2.5,11.1-3.7c0.3-0.1,0.6,0,0.6,0.2l0,0C24.7,72.3,24.5,72.5,24.2,72.6z"/>
	<path style="fill:#FFFFFF;" d="M25.1,76.5c-3.8,1.3-7.5,2.5-11.2,3.8c-0.3,0.1-0.6,0-0.7-0.2c0,0,0,0,0,0c-0.1-0.2,0.2-0.5,0.5-0.6
		c3.7-1.3,7.5-2.5,11.2-3.8c0.3-0.1,0.6,0,0.7,0.2l0,0C25.6,76.1,25.4,76.4,25.1,76.5z"/>
	<path style="fill:#FFFFFF;" d="M26.5,80.1c-3.8,1.3-7.6,2.6-11.4,3.8c-0.3,0.1-0.6,0-0.7-0.2c0,0,0,0,0,0c-0.1-0.2,0.1-0.4,0.4-0.5
		c3.8-1.3,7.6-2.5,11.3-3.8c0.3-0.1,0.6,0,0.7,0.2l0,0C27,79.8,26.8,80,26.5,80.1z"/>
	<path style="fill:#FFFFFF;" d="M28.4,83.5c-3.2,1.1-6.4,2.2-9.6,3.3c-0.3,0.1-0.6,0-0.7-0.2c0,0,0,0,0,0c-0.1-0.2,0-0.4,0.3-0.5
		c3.2-1.1,6.4-2.2,9.6-3.3c0.3-0.1,0.6,0,0.7,0.2l0,0C28.8,83.2,28.6,83.4,28.4,83.5z"/>
</g>
<linearGradient id="SVGID_19_" gradientUnits="userSpaceOnUse" x1="174.9566" y1="69.9125" x2="163.1137" y2="69.9125">
	<stop  offset="0" style="stop-color:#E1DFDD"/>
	<stop  offset="0.456" style="stop-color:#D4D2D0"/>
	<stop  offset="1" style="stop-color:#C8C6C4"/>
</linearGradient>
<path style="fill:url(#SVGID_19_);" d="M169.7,39.5c0,0.6,11.8,43.8,15.4,57c0.5,1.9-0.9,3.8-2.9,3.8h-20.7L169.7,39.5z"/>
<g>
	<path style="fill:#E1DFDD;" d="M166.7,100.3H38.2c-1.7,0-3-1.3-3-3V22.1c0-1.7,1.3-3,3-3h128.5c1.7,0,3,1.3,3,3v75.2
		C169.7,99,168.3,100.3,166.7,100.3z"/>
	<linearGradient id="SVGID_20_" gradientUnits="userSpaceOnUse" x1="102.4443" y1="-2.9544" x2="102.4443" y2="190.2307">
		<stop  offset="0" style="stop-color:#CCE4F6"/>
		<stop  offset="1" style="stop-color:#66AEE5"/>
	</linearGradient>
	<polygon style="fill:url(#SVGID_20_);" points="40.8,94.5 40.8,24.9 164,24.9 164,94.5 	"/>
</g>
<g>
	<path style="fill:#0078D4;" d="M172.4,27.2c-6.5-1.5-13,2.5-14.5,9c-1.5,6.4,2.4,12.8,8.7,14.5c6.5,1.7,13.1-2.1,14.8-8.5
		c0-0.1,0-0.3-0.2-0.3l-11.3-2.8c-0.1,0-0.2-0.2-0.2-0.3l2.8-11.3C172.6,27.4,172.5,27.2,172.4,27.2z"/>
	<path style="fill:#99C9EE;" d="M175.2,26.3l-2.8,11.3c0,0.1,0,0.3,0.2,0.3l11.3,2.8c0.1,0,0.3,0,0.3-0.2c1.5-6.3-2.4-12.7-8.6-14.4
		C175.4,26,175.2,26.1,175.2,26.3z"/>
</g>
<g>
	<path id="Path_112896_2_" style="fill:#FFF1CC;" d="M167.8,67.1c-0.7-0.8-1.3-1.3-1.8-1.4c-1-0.2-3.9,0.6-4.9,0.8
		c-0.4,0.1-0.8,0.4-1.1,0.8c-0.5,0.8-4.6,8.5-5,11.7c-0.6,4.2,2.2,4.8,2.9,4.9c0.6,0.1,3.8-2.7,4.9-3.4c1.2-0.9,1.9-0.7,2.6-0.5
		c0.6,0.1,1.4,0.2,4.7,0.7s4.1,0.7,4.7,0.7c0.7,0.1,1.5,0.2,2.3,1.3c0.9,1,3.2,4.7,3.9,4.8c0.6,0.1,3.5,0.4,4-3.8
		c0.4-3.2-1.6-11.9-1.9-12.8c-0.1-0.5-0.4-0.8-0.8-1.1c-0.9-0.5-3.5-2.1-4.5-2.3c-0.5-0.1-1.2,0.1-2,0.8L167.8,67.1z"/>
	<path id="Path_112898_4_" style="fill:#FFB900;" d="M184,72.5c-0.1-0.5-0.4-0.9-0.9-1.2c-1-0.5-3.8-2-4.9-2.2
		c-0.9-0.1-1.3,0.6-2.3,1.4c-1.1,1.3-1.5,1.5-2.3,1.4c-0.2,0-1.4-0.2-2.4-0.4c-1-0.2-2.1-0.3-2.4-0.4c-0.8-0.1-1.1-0.5-1.8-2.1
		c-0.7-1.1-0.9-1.9-1.8-2.1c-1.1-0.2-4.2,0.4-5.3,0.6c-0.5,0.1-0.9,0.5-1.2,0.9c-0.6,0.9-5,9.5-5.5,13.1c-0.6,4.7,2.4,5.4,3.1,5.5
		c0.7,0.1,4.1-3,5.4-3.8c1.3-0.9,2-0.7,2.8-0.6c0.6,0.1,1.6,0.2,5.1,0.8c3.6,0.6,4.5,0.7,5.1,0.8c0.8,0.1,1.6,0.2,2.6,1.5
		c1,1.1,3.5,5.2,4.2,5.3c0.7,0.1,3.8,0.4,4.4-4.3C186.4,83.2,184.3,73.5,184,72.5z"/>
	<path id="Path_112899_2_" style="fill:#FFFFFF;" d="M168.3,77.9l-1.3-0.2l0.2-1.3c0-0.2-0.1-0.4-0.3-0.5l-0.6-0.1
		c-0.2,0-0.4,0.1-0.4,0.3c0,0,0,0,0,0l-0.2,1.3l-1.3-0.2c-0.2,0-0.4,0.1-0.4,0.3c0,0,0,0,0,0l-0.1,0.6c0,0.2,0.1,0.4,0.3,0.5
		l1.3,0.2l-0.2,1.3c0,0.2,0.1,0.4,0.3,0.5l0.6,0.1c0.2,0,0.4-0.1,0.4-0.3c0,0,0,0,0,0l0.2-1.3l1.3,0.2c0.2,0,0.4-0.1,0.4-0.3
		c0,0,0,0,0,0l0.1-0.6C168.7,78.1,168.5,77.9,168.3,77.9z"/>
	<g id="Group_40325_4_" transform="translate(51.163 33.685)">
		<path id="Path_112900_4_" style="fill:#FFFFFF;" d="M123,47.8c-1.1-0.2-1.8-1.2-1.7-2.3c0.1-1,1.1-1.8,2.1-1.7c0,0,0.1,0,0.1,0
			c1.1,0.2,1.8,1.2,1.7,2.3C125,47.2,124.1,48,123,47.8C123,47.8,123,47.8,123,47.8z"/>
	</g>
	<path id="Path_112902_2_" style="fill:#FFFFFF;" d="M180.1,73.7c-0.5,0-1-0.4-1-1c0-0.5,0.3-1,0.9-1c0,0,0,0,0,0c0.5,0,1,0.4,1,1
		C181.1,73.2,180.7,73.6,180.1,73.7C180.2,73.7,180.1,73.7,180.1,73.7z"/>
	<path id="Path_112904_2_" style="fill:#FFFFFF;" d="M177.4,74.9c-0.5-0.1-0.9-0.6-0.8-1.1c0.1-0.5,0.5-0.9,1-0.8c0,0,0,0,0,0
		c0.5,0.1,0.9,0.6,0.8,1.1C178.4,74.6,178,75,177.4,74.9C177.4,74.9,177.4,74.9,177.4,74.9z"/>
	<path id="Path_112905_2_" style="fill:#FFFFFF;" d="M178.9,77.7c-0.5,0-1-0.4-1-1c0-0.5,0.3-1,0.9-1c0,0,0,0,0,0c0.5,0,1,0.4,1,1
		C179.9,77.2,179.5,77.7,178.9,77.7C179,77.7,179,77.7,178.9,77.7z"/>
	<path id="Path_112907_2_" style="fill:#FFFFFF;" d="M181.3,76.5c-0.5-0.1-0.9-0.6-0.8-1.1c0.1-0.5,0.5-0.9,1-0.8c0,0,0,0,0,0
		c0.5,0.1,0.9,0.6,0.8,1.1C182.3,76.2,181.8,76.6,181.3,76.5C181.3,76.5,181.3,76.5,181.3,76.5z"/>
	<g id="Group_40325_3_" transform="translate(51.163 33.685)">
		<path id="Path_112900_3_" style="fill:#FFFFFF;" d="M111.5,39.9c-1.1-0.2-1.8-1.2-1.7-2.3c0.1-1,1.1-1.8,2.1-1.7c0,0,0.1,0,0.1,0
			c1.1,0.2,1.8,1.2,1.7,2.3C113.5,39.3,112.6,40,111.5,39.9C111.5,39.9,111.5,39.9,111.5,39.9z"/>
	</g>
</g>
<path style="fill:#FFF1CC;" d="M119.9,54.7c0,0.9-0.1,1.9-0.2,2.8c0,0,0,0,0,0c0,0.3-0.1,0.5-0.1,0.8c-0.2,0.9-0.5,1.8-0.8,2.7
	c-1.4,3.6-4,6.6-7.3,8.6c-2.6,1.6-5.7,2.5-8.9,2.5c-3.3,0-6.3-0.9-9-2.5c-3.2-1.9-5.8-4.9-7.2-8.4c-0.4-0.9-0.7-1.9-0.9-2.9
	c0-0.3-0.1-0.5-0.1-0.8c0,0,0,0,0,0c-0.2-0.9-0.2-1.8-0.2-2.8c0-9.6,7.8-17.4,17.4-17.4S119.9,45.1,119.9,54.7z"/>
<path style="fill:none;" d="M119.9,54.7c0,0.9-0.1,1.9-0.2,2.8c0,0.3-0.1,0.6-0.1,0.8c-0.2,0.9-0.5,1.8-0.8,2.7
	c-1.4,3.6-4,6.6-7.3,8.6c-2.6,1.6-5.7,2.5-8.9,2.5c-3.3,0-6.3-0.9-9-2.5c-3.2-1.9-5.8-4.9-7.2-8.4c-0.4-0.9-0.7-1.9-0.9-2.9
	c-0.1-0.3-0.1-0.6-0.1-0.8c-0.1-0.9-0.2-1.8-0.2-2.8c0-9.6,7.8-17.4,17.4-17.4C112.1,37.3,119.9,45.1,119.9,54.7z"/>
<g transform="matrix( 1, 0, 0, 1, -246,-75) ">
	<g>
		<g id="Layer2_8_FILL_4_">
			<path style="fill:#9A6541;" d="M340.7,139.5c-0.1,1.7-0.5,3.4-1.2,5c0,0.1,0,0.1-0.1,0.1c-3.2-1.9-5.8-4.9-7.2-8.4
				c-0.4-0.9-0.7-1.9-0.9-2.9c0.6-0.7,1.3-1.4,1.9-1.9c1.2-0.9,2.3-1.5,3.6-1.8c0.6-0.2,1.2-0.3,1.9-0.3c0.6,0.8,1.2,1.9,1.5,4.1
				C340.7,135.5,340.8,137.5,340.7,139.5z"/>
		</g>
	</g>
</g>
<g>
	<g id="Layer2_8_FILL_3_">
		<path style="fill:#9A6541;" d="M119.5,58.3c-0.2,0.9-0.5,1.8-0.8,2.7c-1.4,3.6-4,6.6-7.3,8.6c0,0,0-0.1-0.1-0.1
			c-0.7-1.6-1.1-3.3-1.2-5c-0.1-2,0.1-4,0.4-6c0.3-2.2,1-3.3,1.5-4.1c0.7,0.1,1.4,0.2,2.1,0.4c0,0,0,0,0,0c0,0,0,0,0,0
			c1.1,0.3,2.2,0.8,3.3,1.7C118.2,57,118.9,57.6,119.5,58.3z"/>
	</g>
</g>
<path style="fill:#0078D4;" d="M119.6,57.5c0,0.3-0.1,0.5-0.1,0.8c-0.2,0.9-0.5,1.8-0.8,2.7c-1.4,3.6-4,6.6-7.3,8.6
	c-2.6,1.6-5.7,2.5-8.9,2.5c-3.3,0-6.3-0.9-9-2.5c-3.2-1.9-5.8-4.9-7.2-8.4c-0.4-0.9-0.7-1.9-0.9-2.9c0-0.3-0.1-0.5-0.1-0.8l0.8-0.7
	c2-1.8,4.7-2.8,7.4-2.8h18.1c2.7,0,5.4,1,7.4,2.8L119.6,57.5z"/>
<g transform="matrix( 1, 0, 0, 1, -114.9,157.75) ">
	<g>
		<g id="Layer2_13_FILL_2_">
			<path style="fill:#FFFFFF;" d="M224.6-103.4l0-0.2h-15.5l0,0.2c0.3,1.3,1,2.4,2.1,3.3c1.1,0.8,2.3,1.3,3.7,1.3h3.7
				c0.8,0,1.6-0.1,2.3-0.4c0.7-0.3,1.4-0.7,1.9-1.3C223.9-101.4,224.4-102.4,224.6-103.4z"/>
		</g>
	</g>
</g>
<g transform="matrix( 1, 0, 0, 1, -114.9,157.75) ">
	<g>
		<g id="Layer2_14_FILL_2_">
			<path style="fill:#9A6541;" d="M211.9-100.9c0.9,0.7,2,1.1,3.2,1.1h3.7c1.4,0,2.6-0.5,3.6-1.5c0.7-0.7,1.1-1.5,1.4-2.4h-13.6
				C210.4-102.5,211-101.6,211.9-100.9z"/>
		</g>
	</g>
</g>
<g transform="matrix( 1, 0, 0, 1, -114.05,156.65) ">
	<g>
		<g id="Layer2_16_MEMBER_0_FILL_2_">
			<path style="fill:#9A6541;" d="M215.2-106.8c0.2,0.1,0.4,0.2,0.6,0.3c0.2,0,0.5,0.1,0.7,0c0.3-0.1,0.5-0.2,0.6-0.4
				c0,0,0.1-0.1,0-0.1c0,0,0-0.1-0.1-0.1c0,0-0.1,0-0.2,0l-0.1,0c-0.2,0.1-0.5,0.1-0.9,0c-0.2,0-0.4-0.1-0.5-0.2
				c-0.2-0.1-0.3-0.1-0.4-0.2l0,0c-0.1-0.1-0.2-0.1-0.3,0c-0.1,0-0.1,0.1,0,0.2C214.8-107.2,215-107,215.2-106.8z"/>
		</g>
	</g>
</g>
<g transform="matrix( 1, 0, 0, 1, -114.05,156.65) ">
	<g>
		<g id="Layer2_17_FILL_2_">
			<path style="fill:#9A6541;" d="M221.7-103.4c0-0.7,0.1-7,0.1-7l-11.1,0.4l0,6.6c0,0.7-1.1,0.9-1.1,0.9c0.7,0.8,3.6,2,6.7,1.7
				c3.4,0,5.2-1.1,6.2-1.8C222.5-102.6,221.7-102.5,221.7-103.4z"/>
		</g>
	</g>
</g>
<g transform="matrix( 1, 0, 0, 1, -114.05,156.65) ">
	<g>
		<g id="Layer2_18_FILL_2_">
			<path style="fill:#9A6541;" d="M220.9-108.9c0.2,0.3,0.5,0.4,0.8,0.4s0.6-0.2,0.8-0.4c0.2-0.3,0.3-0.6,0.3-0.9
				c0-0.4-0.1-0.7-0.4-0.9c-0.2-0.2-0.5-0.4-0.8-0.4c-0.3,0-0.6,0.2-0.8,0.4c-0.2,0.3-0.3,0.6-0.3,0.9
				C220.6-109.5,220.7-109.2,220.9-108.9z"/>
		</g>
	</g>
</g>
<g transform="matrix( 1, 0, 0, 1, -114.05,156.65) ">
	<g>
		<g id="Layer2_19_FILL_2_">
			<path style="fill:#9A6541;" d="M209.6-109.8c0,0.4,0.1,0.7,0.4,0.9c0.2,0.3,0.5,0.4,0.8,0.4c0.3,0,0.6-0.1,0.8-0.4
				c0.2-0.3,0.3-0.6,0.3-0.9c0-0.4-0.1-0.7-0.4-0.9c-0.2-0.2-0.5-0.4-0.8-0.4c-0.3,0-0.6,0.1-0.8,0.4
				C209.7-110.5,209.6-110.1,209.6-109.8z"/>
		</g>
	</g>
</g>
<g transform="matrix( 1, 0, 0, 1, -114.05,156.65) ">
	<g>
		<g id="Layer2_20_FILL_2_">
			<path style="fill:#9A6541;" d="M210.7-111.1l0,3.4c0,1.3,0.6,2.6,1.6,3.5c1,0.9,2.1,1.3,3.4,1.3l1.6-0.1c1.3,0,2.4-0.6,3.3-1.5
				s1.2-1.9,1.2-3.3l-0.1-3.4c0-1.4-0.6-2.6-1.6-3.5c-1-1-2-1.4-3.4-1.4h-1.3c-1.4,0.1-2.5,0.7-3.5,1.7
				C211-113.5,210.6-112.5,210.7-111.1z"/>
		</g>
	</g>
</g>
<g transform="matrix( 1, 0, 0, 1, -114.05,156.65) ">
	<g>
		<g id="Layer2_22_FILL_2_">
			
				<radialGradient id="SVGID_22_" cx="4028.5498" cy="627.5881" r="3.0986" gradientTransform="matrix(-0.9993 3.674859e-02 3.082140e-02 0.8772 4223.0967 -807.6484)" gradientUnits="userSpaceOnUse">
				<stop  offset="0" style="stop-color:#59453A"/>
				<stop  offset="1" style="stop-color:#9A6541;stop-opacity:0"/>
			</radialGradient>
			<path style="fill:url(#SVGID_22_);" d="M216.4-114.4l0.4,9.4l4.4-0.5l-0.3-8.6L216.4-114.4z"/>
		</g>
	</g>
</g>
<linearGradient id="SVGID_24_" gradientUnits="userSpaceOnUse" x1="102.1746" y1="51.9309" x2="102.1828" y2="45.7885">
	<stop  offset="1.439468e-02" style="stop-color:#48372D"/>
	<stop  offset="0.4807" style="stop-color:#59453A"/>
	<stop  offset="1" style="stop-color:#9A6541"/>
</linearGradient>
<path style="opacity:0.75;fill:url(#SVGID_24_);" d="M107.2,45.6l0,1c0,0.7-0.2,1.2-0.7,1.7c-0.5,0.5-1,0.7-1.7,0.8
	c-1.1,0.1-1.3-0.5-2.8-0.5c-1.3,0-2,0.6-2.8,0.5c-0.5-0.1-1-0.3-1.4-0.8c-0.4-0.4-0.6-0.9-0.6-1.5l0-1.3l-0.6,0l0.1,3.4
	c0,1.3,0.5,2.5,1.5,3.4c1,0.9,1.9,1.3,3,1.3l2,0c1.5,0,2.4-0.6,3.3-1.6c0.9-1,1.3-2.1,1.3-3.5l-0.1-3L107.2,45.6z"/>
<g transform="matrix( 1, 0, 0, 1, -114.05,156.65) ">
	<g>
		<g id="Layer2_24_FILL_2_">
			<path style="fill:#9A6541;" d="M216.9-108.3c0.2-0.1,0.4-0.2,0.6-0.4c0.1-0.2,0.2-0.4,0.2-0.6c0-0.4-0.2-0.7-0.5-0.9
				c-0.4-0.2-0.6-0.5-0.7-0.8l-0.5,0.7c-0.4,0.5-0.5,0.8-0.5,1.1c0,0.3,0.1,0.6,0.4,0.9c0.2,0.2,0.4,0.3,0.7,0.3
				C216.7-108.2,216.9-108.3,216.9-108.3z"/>
		</g>
	</g>
</g>
<g>
	<path style="fill:#9A6541;" d="M103.4,49.9c-0.3,0.4-0.8,0.6-1.3,0.6c-0.3,0-0.5-0.1-0.7-0.3c-0.2-0.2-0.4-0.4-0.4-0.6
		c0-0.1,0-0.1,0.1-0.2c0,0,0.1,0,0.1,0l0,0c0.4,0.2,0.7,0.3,1,0.3c0.3,0.1,0.7,0,1.1-0.1l0,0C103.3,49.7,103.4,49.7,103.4,49.9
		C103.4,49.8,103.4,49.9,103.4,49.9z"/>
</g>
<ellipse style="fill:#33312D;" cx="100.3" cy="46.1" rx="0.3" ry="0.6"/>
<ellipse style="fill:#33312D;" cx="104.3" cy="46.1" rx="0.3" ry="0.6"/>
<path style="fill:#53ADE5;" d="M119.7,79.6H85.1c-0.9,0-1.7-0.8-1.7-1.7v0c0-0.9,0.8-1.7,1.7-1.7h34.6c0.9,0,1.7,0.8,1.7,1.7v0
	C121.4,78.8,120.7,79.6,119.7,79.6z"/>
<g>
	
		<linearGradient id="SVGID_25_" gradientUnits="userSpaceOnUse" x1="-595.8501" y1="-2373.6772" x2="-568.6824" y2="-2373.6772" gradientTransform="matrix(0.8867 0.4624 -0.4624 0.8867 -554.6133 2412.9431)">
		<stop  offset="0" style="stop-color:#E1DFDD"/>
		<stop  offset="0.3956" style="stop-color:#DDDBD9"/>
		<stop  offset="0.8251" style="stop-color:#D0CECC"/>
		<stop  offset="1" style="stop-color:#C8C6C4"/>
	</linearGradient>
	<polygon style="fill:url(#SVGID_25_);" points="36.2,50.1 13.1,44.5 17.1,28 40.2,33.6 	"/>
	
		<rect x="18.2" y="27.1" transform="matrix(0.2358 -0.9718 0.9718 0.2358 -17.5418 55.7441)" style="fill:#FFFFFF;" width="17" height="23.8"/>
	<g>
		<g>
			
				<linearGradient id="SVGID_30_" gradientUnits="userSpaceOnUse" x1="-1595.2374" y1="-3105.1931" x2="-1583.3459" y2="-3105.1931" gradientTransform="matrix(0.9718 0.2358 -0.2358 0.9718 843.5087 3437.3818)">
				<stop  offset="0.338" style="stop-color:#82A555"/>
				<stop  offset="0.5219" style="stop-color:#86B44B"/>
				<stop  offset="0.7704" style="stop-color:#8AC142"/>
				<stop  offset="1" style="stop-color:#8BC53F"/>
			</linearGradient>
			<path style="fill:url(#SVGID_30_);" d="M37.7,44.1l-0.4-0.4c-1.9-2-4.7-2.7-7.3-1.8l-4.4,1.6l-0.9,3.8l11.6,2.8L37.7,44.1z"/>
		</g>
	</g>
	<circle style="fill:#FFB900;" cx="34.7" cy="37" r="2.9"/>
	<path style="fill:#8BC53F;" d="M29.3,42.6l-3.2-3.4c-1.9-2-4.7-2.7-7.3-1.8L14.4,39l-1.3,5.5l23.1,5.6L29.3,42.6z"/>
	<g>
		<path style="fill:#3393DD;" d="M38.6,33.2c0.9,0.2,1.5,1.1,1.3,2.1l-3.2,13.2c-0.2,0.9-1.1,1.5-2.1,1.3l-19.8-4.8
			c-0.9-0.2-1.5-1.1-1.3-2.1l3.2-13.2c0.2-0.9,1.1-1.5,2.1-1.3L38.6,33.2 M39,31.5l-19.8-4.8c-1.8-0.4-3.7,0.7-4.1,2.5l-3.2,13.2
			c-0.4,1.8,0.7,3.7,2.5,4.1l19.8,4.8c1.8,0.4,3.7-0.7,4.1-2.5l3.2-13.2C41.9,33.8,40.8,32,39,31.5L39,31.5z"/>
	</g>
</g>
</svg>
