<?xml version="1.0" encoding="utf-8"?>
<!-- Generator: Adobe Illustrator 23.0.1, SVG Export Plug-In . SVG Version: 6.00 Build 0)  -->
<svg version="1.1" id="Layer_1" xmlns="http://www.w3.org/2000/svg" xmlns:xlink="http://www.w3.org/1999/xlink" x="0px" y="0px"
	 viewBox="0 0 400 140" style="enable-background:new 0 0 400 140;" xml:space="preserve">
<style type="text/css">
	.st0{fill:#2F2F2F;}
	.st1{fill:#D83B01;}
	.st2{fill:#FFFFFF;}
</style>
<title>Office_Deploy_4_400x140</title>
<polygon class="st0" points="154.2,14.3 253.8,14.7 253.6,79.3 153.9,79.3 "/>
<path class="st0" d="M271.4,103.8c-0.1-1-0.3-1.9-0.7-2.8l-19.4-15.4h-94.9L136.9,101c-0.4,0.9-0.7,1.8-0.7,2.8
	c-0.1,1-0.2,2.1-0.2,3.2h135.8C271.6,105.9,271.6,104.9,271.4,103.8z"/>
<rect x="164.4" y="27.9" class="st1" width="67" height="39"/>
<g id="download">
	<rect x="193.3" y="52.1" class="st2" width="9.1" height="9.1"/>
	<polygon class="st0" points="196.5,43.1 196.5,33.8 199.3,33.8 199.3,43.1 202.5,39.9 204.5,41.8 197.9,48.4 191.3,41.8 
		193.3,39.9 	"/>
</g>
</svg>
