<?xml version="1.0" encoding="utf-8"?>
<!-- Generator: Adobe Illustrator 22.0.1, SVG Export Plug-In . SVG Version: 6.00 Build 0)  -->
<svg version="1.1" id="Layer_1" xmlns="http://www.w3.org/2000/svg" xmlns:xlink="http://www.w3.org/1999/xlink" x="0px" y="0px"
	 viewBox="0 0 200 120" style="enable-background:new 0 0 200 120;" xml:space="preserve">
<g>
	<path style="fill:#C7E0F4;" d="M142.8,58.4c-0.5,0-1-0.1-1.5-0.4c-4.7-2.7-27.7-17.8-19.2-46c0.4-1.2,1.5-2.1,2.9-2.1
		c0.4,0,0.8,0.1,1.2,0.3c1.4,0.6,4.2,1.6,7,1.6c3.1,0,5.5-1.1,7.2-3.5c0.6-0.8,1.5-1.2,2.4-1.2c0.9,0,1.8,0.5,2.4,1.2
		c1.7,2.4,4.1,3.5,7.2,3.5c2.9,0,5.7-1,7-1.6c0.4-0.2,0.8-0.3,1.2-0.3c1.3,0,2.5,0.9,2.9,2.1c8.4,28.2-14.5,43.3-19.2,46
		C143.8,58.2,143.3,58.4,142.8,58.4z"/>
</g>
<g>
	<path style="fill:#3376BB;" d="M160.1,11.7c-3.1,1.4-11.5,4.2-16.4-2.4c-0.5-0.7-1.5-0.7-2,0c-4.9,6.6-13.2,3.8-16.4,2.4
		c-0.7-0.3-1.5,0.1-1.7,0.8c-8.1,27.1,14.4,41.6,18.4,44c0.4,0.2,0.9,0.2,1.2,0c4.1-2.4,26.5-16.9,18.4-44
		C161.6,11.7,160.8,11.4,160.1,11.7z"/>
</g>
<g>
	<path style="fill:#F7B548;" d="M65.6,57.2l-2-4c-3.1-6.1-10.5-8.8-16.7-5.7c-6.2,3.1-8.7,10.6-5.6,16.7l2.1,4.1l-0.6,0.3
		c-1.1,0.6-1.6,1.9-1,3.1l9,18c0.6,1.1,1.9,1.6,3.1,1l23.4-11.7c1.1-0.6,1.6-1.9,1-3.1l-9-18c-0.6-1.1-1.9-1.6-3.1-1L65.6,57.2z
		 M45.2,62.3c-2-4-0.3-9,3.8-11c4-1.9,8.8-0.2,10.8,3.8l2,4l-14.5,7.3L45.2,62.3z"/>
	<path style="fill:#FFFFFF;" d="M63.2,70.2c-1.1-2.3-4-3.2-6.2-1.8c-1.9,1.1-2.7,3.5-1.8,5.5c0.7,1.8,2.5,2.8,4.2,2.7l1.8,3.6
		c0.5,0.9,1.6,1.3,2.5,0.8h0c0.9-0.5,1.3-1.6,0.8-2.5L62.7,75C63.7,73.7,64,71.8,63.2,70.2z"/>
</g>
<linearGradient id="SVGID_18_" gradientUnits="userSpaceOnUse" x1="85.1997" y1="100.7704" x2="85.1997" y2="108">
	<stop  offset="0" style="stop-color:#797673"/>
	<stop  offset="1" style="stop-color:#B3AFAB"/>
</linearGradient>
<rect x="79.4" y="100.8" style="fill:url(#SVGID_18_);" width="11.7" height="7.2"/>
<linearGradient id="SVGID_19_" gradientUnits="userSpaceOnUse" x1="124.2474" y1="100.7704" x2="124.2474" y2="108">
	<stop  offset="0" style="stop-color:#797673"/>
	<stop  offset="1" style="stop-color:#B3AFAB"/>
</linearGradient>
<rect x="118.4" y="100.8" style="fill:url(#SVGID_19_);" width="11.7" height="7.2"/>
<path style="fill:#B3AFAB;" d="M73.9,22.2h61.6c1.7,0,3,1.4,3,3v73.9c0,1.7-1.4,3-3,3H73.9c-1.7,0-3-1.4-3-3V25.2
	C70.9,23.5,72.3,22.2,73.9,22.2z"/>
<path style="fill:#DFDEDC;" d="M130.1,48.6L130.1,48.6v-5.8l0,0c1.6,0,2.9,1.3,2.9,2.9v0C133,47.3,131.7,48.6,130.1,48.6z"/>
<path style="fill:#DFDEDC;" d="M130.1,81.6L130.1,81.6v-5.8l0,0c1.6,0,2.9,1.3,2.9,2.9v0C133,80.3,131.7,81.6,130.1,81.6z"/>
<path style="fill:#FFE5B9;" d="M62.3,28.3c0.2,0.3,0.3,0.6,0.4,0.9c0.8,2.3,0,4.4-1.2,4.8c-1.1,0.4-2.5-0.5-3.4-2l0,0
	c-0.4-0.7-0.7-1.4-0.8-2.2l0,0c-0.2-1.7,0.4-3.3,1.5-3.6c0.6-0.2,1.2,0,1.6,0.2C61.1,26.7,61.8,27.4,62.3,28.3 M65.4,26.6
	c-1.7-3.1-4.9-4.8-7.7-3.8c-2.8,0.9-4.3,4.1-3.9,7.4l-9.7,3.3l-0.1-0.4c0-0.1,0-0.1-0.1-0.1c-0.2-0.4-0.7-0.6-1.1-0.4
	c-0.5,0.2-0.7,0.7-0.6,1.2l0.1,0.4l-5.2,1.8c-1,0.3-1.5,1.4-1.2,2.4c0,0.1,0.1,0.2,0.1,0.3c0.4,0.8,1.4,1.2,2.3,0.9l0.1,0l0.8,2.2
	l0.4,1.3c0,0.1,0,0.1,0.1,0.2c0.2,0.4,0.7,0.6,1.2,0.5l0,0c0.5-0.2,0.8-0.8,0.6-1.3l-0.2-0.6c-0.1-0.3,0.1-0.7,0.4-0.8l0,0
	c0.3-0.1,0.6,0,0.8,0.3c0,0,0,0.1,0,0.1l0.3,1c0,0,0,0.1,0,0.1c0.2,0.3,0.5,0.4,0.8,0.3l0,0c0.4-0.1,0.5-0.5,0.4-0.9l-0.5-1.6
	l-0.8-2.2l0.7-0.2l0.1,0.4c0,0.1,0,0.1,0.1,0.1c0.2,0.4,0.7,0.6,1.1,0.4c0.5-0.2,0.7-0.7,0.6-1.2l-0.1-0.4l9.7-3.3
	c1.7,2.9,4.8,4.5,7.6,3.5c3.3-1.1,4.8-5.3,3.4-9.3C65.9,27.5,65.6,27,65.4,26.6L65.4,26.6z"/>
<rect x="79.4" y="32.6" style="fill:#DFDEDC;" width="50.7" height="59"/>
<path style="fill:#3E8EED;" d="M89.9,62.2c0-2.2-1.8-4-4-4c-2.2,0-4,1.8-4,4c0,1.8,1.2,3.3,2.8,3.8l-0.8,5.4
	c-0.2,1.3,0.8,2.4,2.1,2.4c1.3,0,2.3-1.1,2.1-2.4l-0.8-5.4C88.8,65.4,89.9,63.9,89.9,62.2z"/>
<path style="fill:#FFFFFF;" d="M114.8,51.5H94.6c-1,0-1.8-0.8-1.8-1.8v-3.3c0-1,0.8-1.8,1.8-1.8h20.2c1,0,1.8,0.8,1.8,1.8v3.3
	C116.6,50.7,115.8,51.5,114.8,51.5z"/>
<g>
	<circle style="fill:#F7B548;" cx="98.5" cy="48.1" r="1.1"/>
	<circle style="fill:#F7B548;" cx="102.7" cy="48.1" r="1.1"/>
	<circle style="fill:#F7B548;" cx="106.8" cy="48.1" r="1.1"/>
	<circle style="fill:#F7B548;" cx="110.9" cy="48.1" r="1.1"/>
</g>
<linearGradient id="SVGID_20_" gradientUnits="userSpaceOnUse" x1="104.721" y1="54.2548" x2="104.721" y2="78.0224">
	<stop  offset="3.147894e-04" style="stop-color:#3E8EED"/>
	<stop  offset="0.4668" style="stop-color:#4487D6"/>
	<stop  offset="0.9991" style="stop-color:#4B7DB6"/>
</linearGradient>
<path style="fill:url(#SVGID_20_);" d="M114.8,78H94.6c-1,0-1.8-0.8-1.8-1.8V56c0-1,0.8-1.8,1.8-1.8h20.2c1,0,1.8,0.8,1.8,1.8v20.2
	C116.6,77.2,115.8,78,114.8,78z"/>
<rect x="98.2" y="57.4" style="fill:#FFFFFF;" width="3.8" height="3.8"/>
<rect x="102.8" y="57.4" style="fill:#FFFFFF;" width="3.8" height="3.8"/>
<path style="fill:#FFFFFF;" d="M110.8,61.2h-2.9c-0.2,0-0.4-0.2-0.4-0.4v-2.9c0-0.2,0.2-0.4,0.4-0.4h3.4v3.4
	C111.2,61,111,61.2,110.8,61.2z"/>
<rect x="102.8" y="61.9" transform="matrix(-1.836970e-16 1 -1 -1.836970e-16 168.5685 -40.8734)" style="fill:#FFFFFF;" width="3.8" height="3.8"/>
<rect x="98.2" y="61.9" transform="matrix(-1.836970e-16 1 -1 -1.836970e-16 163.9864 -36.2913)" style="fill:#FFFFFF;" width="3.8" height="3.8"/>
<rect x="98.2" y="66.5" transform="matrix(-1.836970e-16 1 -1 -1.836970e-16 168.5685 -31.7092)" style="fill:#FFFFFF;" width="3.8" height="3.8"/>
<rect x="102.8" y="66.5" transform="matrix(-1.836970e-16 1 -1 -1.836970e-16 173.1506 -36.2913)" style="fill:#FFFFFF;" width="3.8" height="3.8"/>
<rect x="107.4" y="61.9" transform="matrix(-1.836970e-16 1 -1 -1.836970e-16 173.1506 -45.4555)" style="fill:#FFFFFF;" width="3.8" height="3.8"/>
<rect x="107.4" y="66.5" transform="matrix(-1.836970e-16 1 -1 -1.836970e-16 177.7328 -40.8734)" style="fill:#FFFFFF;" width="3.8" height="3.8"/>
<rect x="102.8" y="71.1" transform="matrix(-1.836970e-16 1 -1 -1.836970e-16 177.7328 -31.7092)" style="fill:#FFFFFF;" width="3.8" height="3.8"/>
<path style="fill:#A7CBF6;" d="M98.2,74.9v-3.4c0-0.2,0.2-0.4,0.4-0.4h2.9c0.2,0,0.4,0.2,0.4,0.4v2.9c0,0.2-0.2,0.4-0.4,0.4H98.2z"
	/>
<rect x="107.4" y="71.1" transform="matrix(-1.836970e-16 1 -1 -1.836970e-16 182.3149 -36.2913)" style="fill:#A7CBF6;" width="3.8" height="3.8"/>
<line style="fill:none;stroke:#C8C6C4;stroke-width:0.1472;stroke-miterlimit:10;" x1="83.7" y1="36.6" x2="125.5" y2="36.6"/>
<circle style="fill:#FFFFFF;" cx="125.5" cy="36.6" r="1.7"/>
<circle style="fill:#FFFFFF;" cx="83.7" cy="36.6" r="1.7"/>
<line style="fill:none;stroke:#C8C6C4;stroke-width:0.1472;stroke-miterlimit:10;" x1="83.7" y1="87.9" x2="125.5" y2="87.9"/>
<circle style="fill:#FFFFFF;" cx="125.5" cy="87.9" r="1.7"/>
<circle style="fill:#FFFFFF;" cx="83.7" cy="87.9" r="1.7"/>
</svg>
