<?xml version="1.0" encoding="utf-8"?>
<!-- Generator: Adobe Illustrator 22.0.1, SVG Export Plug-In . SVG Version: 6.00 Build 0)  -->
<svg version="1.1" id="Layer_1" xmlns="http://www.w3.org/2000/svg" xmlns:xlink="http://www.w3.org/1999/xlink" x="0px" y="0px"
	 viewBox="0 0 200 120" style="enable-background:new 0 0 200 120;" xml:space="preserve">
<path style="fill:#B3AFAB;" d="M185.4,63.3c1-3-0.8-6.3-4-7c-2.4-0.5-4.9,0.7-5.9,2.9c-0.3,0.6-0.5,1.3-0.5,1.9
	c-0.2,2.6-1,5-2.3,7.2c-0.6,0.9-1.1,2-1.6,3.3c-0.1,0.2-0.3,0.3-0.5,0.2v0c-0.2-0.1-0.3-0.3-0.2-0.5c0.4-1.3,0.6-2.5,0.7-3.6
	c0.2-2.6,1.1-5,2.4-7.2c0.3-0.6,0.6-1.2,0.7-1.9c0.5-2.4-0.8-4.8-3-5.8c-3-1.4-6.4,0.2-7.4,3.2c-0.9,2.6,0.4,5.4,2.8,6.6
	c0.9,0.4,1.6,1.1,1.9,2c0.4,1.2,0.5,3.2-0.4,6.3l0,0l-1,3.1l5.1,1.7l0.7-2l0,0c0.1-0.2,0.1-0.4,0.2-0.6l0-0.1
	c0.8-2.4,1.8-3.9,2.6-4.9c1-1,2.4-1.6,3.8-1.3C181.9,67.4,184.5,65.9,185.4,63.3z M165.7,57.3c0.3-2.1,2.6-3.2,4.5-2.2
	c1.1,0.6,1.8,1.9,1.6,3.2c-0.3,2.1-2.6,3.2-4.5,2.2C166.2,59.9,165.5,58.6,165.7,57.3z M179.8,64.6c-2.1-0.3-3.2-2.6-2.2-4.5
	c0.6-1.1,1.9-1.8,3.2-1.6c2.1,0.3,3.2,2.6,2.2,4.5C182.3,64.2,181.1,64.8,179.8,64.6z"/>
<rect x="158.2" y="53.1" transform="matrix(0.9936 -0.1127 0.1127 0.9936 -6.7156 18.4745)" style="fill:#A7CBF6;" width="3.8" height="31.1"/>
<path style="fill:#3E8EED;" d="M180.6,82.3l-4.4,0l0-8.6l-29.2,0l0,20.6c0,6,4.9,10.8,10.8,10.8l7.5,0c5.1,0,9.3-3.5,10.5-8.2l4.8,0
	c4,0,7.2-3.2,7.3-7.2C188.1,85.7,184.7,82.3,180.6,82.3z M180.6,92.9l-4.4,0l0-6.6l4.5,0c1.9,0,3.4,1.6,3.3,3.5
	C183.8,91.6,182.3,92.9,180.6,92.9z"/>
<g>
	<defs>
		<rect id="SVGID_97_" x="149.7" y="153.1" width="307.1" height="226.3"/>
	</defs>
	<clipPath id="SVGID_10_">
		<use xlink:href="#SVGID_97_"  style="overflow:visible;"/>
	</clipPath>
	<g style="clip-path:url(#SVGID_10_);">
	</g>
</g>
<path style="fill:#E1DFDD;" d="M143.5,94.9H19.3V23.8c0-1.5,1.2-2.8,2.8-2.8h118.6c1.5,0,2.8,1.2,2.8,2.8V94.9z"/>
<linearGradient id="SVGID_11_" gradientUnits="userSpaceOnUse" x1="81.4177" y1="30.321" x2="81.4177" y2="103.8174">
	<stop  offset="0" style="stop-color:#E1DFDD"/>
	<stop  offset="0.456" style="stop-color:#D4D2D0"/>
	<stop  offset="1" style="stop-color:#C8C6C4"/>
</linearGradient>
<rect x="19.3" y="30.3" style="fill:url(#SVGID_11_);" width="124.2" height="73.5"/>
<linearGradient id="SVGID_12_" gradientUnits="userSpaceOnUse" x1="81.195" y1="0.4967" x2="81.195" y2="171.4316">
	<stop  offset="0" style="stop-color:#CCE4F6"/>
	<stop  offset="1" style="stop-color:#66AEE5"/>
</linearGradient>
<rect x="24.5" y="30.3" style="fill:url(#SVGID_12_);" width="113.4" height="60.1"/>
<circle style="fill:#FFFFFF;" cx="81.4" cy="25.9" r="2.4"/>
<path style="fill:#E1DFDD;" d="M10.4,94.5h142v3.9c0,3-2.4,5.4-5.4,5.4H15.9c-3,0-5.4-2.4-5.4-5.4V94.5z"/>
<g>
	<defs>
		<rect id="SVGID_8_" x="24.5" y="30.3" width="113.4" height="60.1"/>
	</defs>
	<clipPath id="SVGID_15_">
		<use xlink:href="#SVGID_8_"  style="overflow:visible;"/>
	</clipPath>
	<polygon id="Group_1_1_" style="opacity:0.1;clip-path:url(#SVGID_15_);fill:#FFFFFF;" points="106.6,109.2 -136.9,109.2 
		-136.9,6.7 50,6.7 	"/>
</g>
<path style="fill:#9B643D;" d="M95.3,61c0.7-0.8,1.2-1.4,1.2-1.4l-0.7-0.9l0,0c0,0-1.1-1-1.2-3c-0.2-2.4-0.1-10.1-0.1-10.1
	s-14.4-6.2-13.2-0.4c1.1,5.4,1.1,10.1,0.3,12.3c-0.4,0.9-1.3,0.9-1.3,0.9l0.1,0c-0.9,0-1.8-0.1-2.5-0.2c0,0-1.6,3-0.7,4.2
	c0.9,1.1,11,2.9,13.4,2.2l3.3,2L95.3,61z"/>
<path style="fill:#F7B548;" d="M112,70.7c0,0.6-0.1,1.1-0.3,1.6c0,0.1,0,0.1-0.1,0.2c-1,2.8-4,11.2-6.1,17.9H73.4l0,0H67
	c0,0,0,0,0,0c0-0.2-0.1-0.4-0.1-0.6c-0.1-0.9-0.3-1.7-0.5-2.6c-0.5-2.7-1.2-5.3-1.9-7.6c-1.7-5.6-3.5-9.4-3.5-9.4c0-0.3,0-0.5,0-0.8
	c0.5-6.4,4.8-9.7,7.5-10.3c4.9-1.2,9.3-0.9,9.3-0.9c0,0,0,0,0,0c2,2.1,5.2,3.5,8.9,3.6c3.7,0.1,7-1.2,9-3.2c0,0,0,0,0,0l6.7,0.1
	c3.6,0.1,6.3,2.1,7.9,5.1C111.4,65.8,112,68.1,112,70.7z"/>
<g>
	<ellipse style="fill:#6264A7;" cx="77" cy="46.1" rx="2.2" ry="3.5"/>
	<path style="fill:#33312D;" d="M76.5,49.6c1.2,0,2.2-1.6,2.2-3.5c0-2-1-3.5-2.2-3.5h-0.4c-1.2,0-2.2,1.6-2.2,3.5c0,2,1,3.5,2.2,3.5
		H76.5z"/>
</g>
<radialGradient id="SVGID_17_" cx="-9986.4434" cy="-585.4479" r="8.0177" gradientTransform="matrix(1 0 0 -1 10070.6973 -534)" gradientUnits="userSpaceOnUse">
	<stop  offset="0" style="stop-color:#594539"/>
	<stop  offset="0.2324" style="stop-color:#5E4739;stop-opacity:0.7676"/>
	<stop  offset="0.4916" style="stop-color:#6B4D3A;stop-opacity:0.5084"/>
	<stop  offset="0.7627" style="stop-color:#81583B;stop-opacity:0.2373"/>
	<stop  offset="1" style="stop-color:#9B643D;stop-opacity:0"/>
</radialGradient>
<path style="fill:url(#SVGID_17_);" d="M80.4,58.4c0,0,2.4,1.9,7.6,1.9c5.2,0,7.9-1.6,7.9-1.6s-1.1-1-1.2-3
	c-0.2-2.4-0.1-10.1-0.1-10.1s-14.4-6.2-13.2-0.4c1.1,5.4,1.1,10.1,0.3,12.3C81.3,58.4,80.4,58.4,80.4,58.4z"/>
<g>
	<path style="fill:#5D4033;" d="M83.7,41.7c0.1-0.2,0.3-0.5,0.5-0.6c0.3-0.1,0.5-0.1,0.8-0.1c0.5,0.2,0.9,0.6,1,1.1
		c0,0.1-0.1,0.1-0.1,0.1s-0.1,0-0.1-0.1l0,0c-0.3-0.3-0.6-0.5-0.9-0.7s-0.7-0.1-1,0.2l0,0C83.8,41.8,83.7,41.8,83.7,41.7
		C83.7,41.8,83.7,41.8,83.7,41.7z"/>
</g>
<g>
	<path style="fill:#5D4033;" d="M77.5,41.7c0.1-0.2,0.3-0.5,0.5-0.6c0.3-0.1,0.5-0.1,0.8-0.1c0.5,0.2,0.9,0.6,1,1.1
		c0,0.1-0.1,0.1-0.1,0.1s-0.1,0-0.1-0.1l0,0c-0.3-0.3-0.6-0.5-0.9-0.7s-0.7-0.1-1,0.2l0,0C77.6,41.8,77.6,41.8,77.5,41.7
		C77.5,41.8,77.5,41.8,77.5,41.7z"/>
</g>
<g>
	<path style="fill:#E1DFDD;" d="M84.7,45.5l11.1,0.1l0.1-6.5c0-1.7-1.4-3.1-3.1-3.2h-7.9c-2.4,0-4.3,1.9-4.3,4.3v1
		C80.4,43.6,82.3,45.5,84.7,45.5z"/>
	<circle style="fill:#9B643D;" cx="93.4" cy="45.3" r="2.8"/>
	<path style="fill:#9B643D;" d="M83.7,56.3h1.2c4.7,0,8.6-3.8,8.6-8.6l0.1-5.7c0-2-1.6-3.5-3.5-3.5l-12.8-0.1l-0.1,11.3
		C77.2,53.4,80.1,56.3,83.7,56.3z"/>
	<path style="fill:#9B643D;" d="M80.6,49.1l6.2,0.1c2.5,0,4.5-2,4.6-4.5l0.1-5.7c0-0.7-0.5-1.2-1.1-1.2l-10.1-0.1
		c-1.4,0-2.5,1.1-2.5,2.5l-0.1,5.7C77.5,47.7,78.9,49.1,80.6,49.1z"/>
	<path style="fill:#E1DFDD;" d="M80.5,39c2.3-0.6,4.2-0.8,6.5-0.9c3.6-0.2,6.7,0.5,6.7,0.5l-0.1-1.1c-0.1-2.5-1.6-4.8-4.6-4.3
		c-4.6,0.7-3.6-0.7-5.6-0.8c-1.9-0.1-2.3,1.7-3.1,1.8c-1.9,0.1-1.6-2.4-4.4-1.8C73.5,32.9,72.1,41.1,80.5,39z"/>
	
		<ellipse transform="matrix(5.549178e-03 -1 1 5.549178e-03 41.0372 131.3546)" style="fill:#3A312E;" cx="86.6" cy="45" rx="1.1" ry="0.6"/>
	<g>
		
			<radialGradient id="SVGID_19_" cx="-10147.9453" cy="-830.0158" r="5.5429" gradientTransform="matrix(0.9721 1.226054e-02 1.105005e-02 -0.8762 9959.4307 -555.363)" gradientUnits="userSpaceOnUse">
			<stop  offset="0" style="stop-color:#33312D"/>
			<stop  offset="0.1805" style="stop-color:#3F372F;stop-opacity:0.8195"/>
			<stop  offset="0.5088" style="stop-color:#604734;stop-opacity:0.4912"/>
			<stop  offset="0.9451" style="stop-color:#94613C;stop-opacity:5.489689e-02"/>
			<stop  offset="1" style="stop-color:#9B643D;stop-opacity:0"/>
		</radialGradient>
		<path style="fill:url(#SVGID_19_);" d="M77.3,55.7l6.6,0.1V50c0-0.3-0.2-0.6-0.4-0.8l-1.3-0.9c-0.3-0.2-0.4-0.5-0.2-0.9l1.1-1.7
			c0.3-0.4,0.4-0.9,0.4-1.4v-6.2H77L77.3,55.7z"/>
	</g>
	<path style="fill:#E1DFDD;" d="M94.1,37.4c0,0-4.8-0.9-4.5,2.5c0.2,2,0.8,2.3,2,2.4c0.9,0.1,2.6,0.3,2.6,0.3L94.1,37.4z"/>
	
		<ellipse transform="matrix(5.549178e-03 -1 1 5.549178e-03 35.1371 125.4644)" style="fill:#3A312E;" cx="80.6" cy="45.1" rx="1.1" ry="0.6"/>
	<g style="opacity:0.7;">
		<path style="fill:#594539;" d="M86.8,50.3c-0.1,0.8-0.8,1.5-1.6,1.8c-0.4,0.1-0.9,0.2-1.2,0.1c-0.4-0.1-0.8-0.3-1.1-0.7
			c-0.1-0.1-0.1-0.2,0.1-0.3c0.1-0.1,0.1-0.1,0.2-0.1l0,0c0.4,0.1,0.7,0,0.9,0c0.3-0.1,0.5-0.1,0.8-0.2c0.5-0.2,1-0.4,1.6-0.9l0,0
			c0.1-0.1,0.2-0.1,0.3,0.1C86.8,50.2,86.8,50.2,86.8,50.3z"/>
	</g>
</g>
<path style="fill:none;" d="M110.5,65.7c0,1.7-0.2,3.3-0.5,4.9c-2,10-10,17.9-20,19.8c-1.5,0.3-3,0.4-4.5,0.4s-3.1-0.1-4.5-0.4
	c-2-0.4-3.9-1-5.7-1.8c-0.8-0.3-1.5-0.7-2.2-1.1c-0.2-0.1-0.5-0.3-0.8-0.4c-0.1,0-0.1-0.1-0.2-0.1c-3-1.9-5.6-4.4-7.5-7.3
	c-2-3-3.4-6.5-4-10.2c-0.2-1.2-0.3-2.4-0.3-3.7c0-8.9,5.6-28,13.2-40.6c4.3-7,9.2-12,14.2-12c5,0,9.3,5,12.8,12
	c5.9,11.8,9.5,29.2,9.9,38.7C110.5,64.5,110.5,65.2,110.5,65.7z"/>
<path style="fill:#33312D;" d="M85.7,33.3C85.5,33.3,85,33.3,85.7,33.3c2.4-0.1,8.5,0.2,8.8,9.4c0,0.1-1.2,0.2-1.2,0.2
	C93.6,37.9,90.8,33.7,85.7,33.3z"/>
<g>
	<ellipse style="fill:#6264A7;" cx="93.8" cy="46.1" rx="2.2" ry="3.5"/>
	<path style="fill:#33312D;" d="M94.4,49.6c-1.2,0-2.2-1.6-2.2-3.5c0-2,1-3.5,2.2-3.5h0.4c1.2,0,2.2,1.6,2.2,3.5c0,2-1,3.5-2.2,3.5
		H94.4z"/>
</g>
<path style="fill:none;stroke:#33312D;stroke-width:1.3212;stroke-linecap:round;stroke-linejoin:round;stroke-miterlimit:10;" d="
	M80.8,56.8c-2.6,0-4.7-2.3-4.7-5.2v-3.9"/>
<radialGradient id="SVGID_20_" cx="110.75" cy="88" r="29.4756" gradientUnits="userSpaceOnUse">
	<stop  offset="0" style="stop-color:#977A61"/>
	<stop  offset="0.2404" style="stop-color:#B58C59"/>
	<stop  offset="0.7814" style="stop-color:#F7B548"/>
</radialGradient>
<path style="fill:url(#SVGID_20_);" d="M104.3,86.9c0,1.2-0.2,2.4-0.5,3.5H64.2c-0.3-1.1-0.5-2.3-0.5-3.5c0-8.9,9.1-16.1,20.3-16.1
	C95.2,70.8,104.3,78,104.3,86.9z"/>
<path style="fill:#797673;" d="M73.4,90.4H39.3l0,0L32.5,71c-0.3-0.8,0.3-1.5,1.1-1.5h31.5c0.6,0,1.2,0.4,1.4,1L72.2,87l0,0.1
	l0.8,2.3l0.2,0.7L73.4,90.4L73.4,90.4z"/>
<g>
	<path style="fill:#9B643D;" d="M75.2,89.5c0,0-1.7,0.6-2.9,0.8c-1.6,0.2-3.7-0.4-3.7-0.4s-1.6-0.1-2.9,0c-1.5,0.1-3,0.8-3.9,0.8
		c-1.4,0.1-1.4-1-0.2-1.2c1.3-0.2,3.5-2.1,5.4-2.3c2-0.2,8.2-0.3,8.2-0.3L75.2,89.5z"/>
	<path style="fill:#F7B548;" d="M111.7,72.5c0,0.1,0,0.2,0,0.3c-0.7,2.6-2.4,8.7-4.4,14.2c-0.2,1.3-0.7,2.4-1.4,3.4H73.4l0,0h-0.4
		v-0.3l0-0.8l0-1.8V87l0-0.9l20-2.9l0.5-16.9l0.1-3.8l1.3,0.6l15.2,7.5l0.9,0.4C111.4,71.3,111.8,71.9,111.7,72.5z"/>
</g>
<g>
	<path style="fill:#3E8EED;" d="M60,37H50c-5.5,0-10-4.5-10-10v0c0-5.5,4.5-10,10-10h10c5.5,0,10,4.5,10,10v0C70,32.5,65.5,37,60,37
		z"/>
	<path style="fill:#3E8EED;" d="M62.5,41.6c-0.4,0.1-0.8,0.1-1.2,0.1c-2.6,0-4.7-2.2-4.7-4.9c0-2.6,2.2-4.7,4.9-4.7
		c1.1,0,2.1,0.4,3,1.1c-2.1,0.4-3.7,2.3-3.8,4.5C60.7,39.3,61.4,40.7,62.5,41.6z"/>
	<path style="fill:#FFFFFF;" d="M59.3,26H47.7c-0.4,0-0.7-0.3-0.7-0.7v-1.6c0-0.4,0.3-0.7,0.7-0.7h11.6c0.4,0,0.7,0.3,0.7,0.7v1.6
		C60,25.7,59.7,26,59.3,26z"/>
	<path style="fill:#FFFFFF;" d="M62.3,31H47.7c-0.4,0-0.7-0.3-0.7-0.7v-1.6c0-0.4,0.3-0.7,0.7-0.7h14.6c0.4,0,0.7,0.3,0.7,0.7v1.6
		C63,30.7,62.7,31,62.3,31z"/>
</g>
<path style="fill:#3E8EED;" d="M159.9,50.2l-0.1-0.9c-0.1-1-1.1-1.8-2.1-1.7v0c-1,0.1-1.8,1.1-1.7,2.1l0.1,0.9l0.3,2.8l3.8-0.4
	L159.9,50.2z"/>
<path style="fill:#3E8EED;" d="M153.5,75c0-0.2-0.2-0.3-0.5-0.3l-3.6,0.8l0.2,0.8l3.6-0.8C153.4,75.4,153.5,75.3,153.5,75
	C153.5,75.1,153.5,75,153.5,75z"/>
<g>
	<polygon style="fill:#F7B548;" points="157.5,73.7 149.1,73.7 148.8,72.5 148.7,71.8 147.9,68 147.3,65.1 147.1,64.3 146.5,61.3 
		145.7,57.6 145.6,56.9 144.9,53.9 144.8,53.2 144.2,50.2 144,49.5 143.4,46.5 143.2,45.7 142.3,41.4 150.3,39.7 	"/>
	<path style="fill:#FFFFFF;" d="M147,45.7l-3.6,0.8l-0.2-0.7l3.6-0.8c0.2,0,0.4,0.1,0.5,0.3l0,0C147.3,45.5,147.2,45.7,147,45.7z"/>
	<path style="fill:#FFFFFF;" d="M148.5,53.2l-3.6,0.8l-0.2-0.7l3.6-0.8c0.2,0,0.4,0.1,0.5,0.3l0,0C148.9,52.9,148.7,53.1,148.5,53.2
		z"/>
	<path style="fill:#FFFFFF;" d="M151.6,68l-3.6,0.8l-0.2-0.7l3.6-0.8c0.2,0,0.4,0.1,0.5,0.3l0,0C152,67.8,151.8,68,151.6,68z"/>
	<path style="fill:#FFFFFF;" d="M150.1,60.6l-3.6,0.8l-0.2-0.7l3.6-0.8c0.2,0,0.4,0.1,0.5,0.3v0C150.4,60.4,150.3,60.6,150.1,60.6z"
		/>
	<path style="fill:#FFFFFF;" d="M145.8,49.9l-1.6,0.3l-0.2-0.7l1.6-0.3c0.2,0,0.4,0.1,0.5,0.3l0,0C146.1,49.6,146,49.8,145.8,49.9z"
		/>
	<path style="fill:#FFFFFF;" d="M147.3,57.3l-1.6,0.3l-0.2-0.7l1.6-0.3c0.2,0,0.4,0.1,0.5,0.3l0,0C147.7,57.1,147.5,57.3,147.3,57.3
		z"/>
	<path style="fill:#FFFFFF;" d="M150.4,72.2l-1.6,0.3l-0.2-0.7l1.6-0.3c0.2,0,0.4,0.1,0.5,0.3l0,0C150.8,71.9,150.6,72.1,150.4,72.2
		z"/>
	<path style="fill:#FFFFFF;" d="M148.9,64.7l-1.6,0.3l-0.2-0.7l1.6-0.3c0.2,0,0.4,0.1,0.5,0.3l0,0C149.2,64.5,149.1,64.7,148.9,64.7
		z"/>
</g>
</svg>
