<?xml version="1.0" encoding="utf-8"?>
<!-- Generator: Adobe Illustrator 22.0.1, SVG Export Plug-In . SVG Version: 6.00 Build 0)  -->
<svg version="1.1" id="Layer_1" xmlns="http://www.w3.org/2000/svg" xmlns:xlink="http://www.w3.org/1999/xlink" x="0px" y="0px"
	 viewBox="0 0 200 120" style="enable-background:new 0 0 200 120;" xml:space="preserve">
<g>
	<path style="fill:#C7E0F4;" d="M40.5,61.8c7.6,6.7,16.2,12.3,25.4,16.5c0.5,0.2,0.7,0.8,0.5,1.3c-2,4.4-3.9,8.8-5.9,13.2
		c-0.2,0.5-0.8,0.7-1.3,0.5C48.4,88.4,38.4,81.9,29.6,74c-0.4-0.4-0.4-1-0.1-1.4c3.2-3.6,6.4-7.2,9.7-10.7
		C39.5,61.5,40.1,61.5,40.5,61.8z"/>
	<path style="fill:#FFFFFF;" d="M57.3,89.9c-4.2-2.1-8.4-4.4-12.4-7c-4-2.6-7.8-5.4-11.4-8.5c0.2-0.9,0.1-1.7-0.2-2.5l5.4-6
		c0.4,0.1,0.7,0.1,1.1,0.1c0,0,0,0,0,0c0.6,0,1.2-0.1,1.7-0.3c3.1,2.6,6.5,5,9.9,7.3c3.4,2.2,7,4.2,10.6,6.1c0.1,1,0.4,1.9,1,2.7
		l-3.3,7.4C58.8,89.1,58,89.4,57.3,89.9z"/>
	<circle style="fill:#C7E0F4;" cx="48.4" cy="78" r="5.7"/>
</g>
<path style="fill:#C7E0F4;" d="M69.1,43.8c1.1,3.5,10.7,33.8,29,49.3c0.1,0.1,0.4,0.1,0.5,0l38.1-24.2c0.3-0.2,0.3-0.5,0.1-0.7
	c-3.3-2.9-23.4-21.2-31.1-47c-0.1-0.3-0.4-0.4-0.7-0.3L69.3,43.3C69.1,43.4,69,43.6,69.1,43.8z"/>
<g>
	<path style="fill:#FFFFFF;" d="M53.2,60.8c-0.4-0.3-0.9-0.2-1.2,0.2L51,62.4l-1.4-1.1c-0.4-0.3-0.9-0.2-1.2,0.2
		c-0.1,0.2-0.2,0.4-0.2,0.6s0.2,0.4,0.3,0.6l1.4,1.1l-1.1,1.4c-0.3,0.4-0.2,0.9,0.2,1.2c0.2,0.1,0.4,0.2,0.6,0.2
		c0.2,0,0.4-0.2,0.6-0.3l1.1-1.4l1.4,1.1c0.2,0.1,0.4,0.2,0.6,0.2c0,0,0.1,0,0.1,0c0.2-0.1,0.3-0.2,0.4-0.3c0.3-0.4,0.2-0.9-0.2-1.2
		l-1.4-1.1l1.1-1.4c0.1-0.2,0.2-0.4,0.2-0.6C53.5,61.2,53.4,61,53.2,60.8z"/>
	<path style="fill:#3E8EED;" d="M95.9,72.5c-15.6,2.6-31.1,5.1-46.5,7.6c-0.5,0.1-1.1-0.2-1.3-0.7C41,61,38.3,40.5,40.5,19.5
		c0.1-0.5,0.5-0.9,1-1c14.4-2.2,28.8-4.4,43.3-6.6c0.7-0.1,1.4,0.5,1.3,1.2c-1,20.5,2.7,40.3,10.6,57.8
		C97.1,71.6,96.7,72.4,95.9,72.5z"/>
	<g>
		<path style="fill:#FFFFFF;" d="M78.6,29.3C68.3,30.8,58,32.4,47.8,34c-0.9,0.1-1.5-0.2-1.5-0.8c0,0,0,0,0,0c0-0.6,0.7-1.1,1.6-1.3
			c10.2-1.6,20.5-3.1,30.8-4.7c0.9-0.1,1.5,0.2,1.5,0.8l0,0C80.1,28.6,79.5,29.1,78.6,29.3z"/>
		<path style="fill:#FFFFFF;" d="M79.3,39.8C68.8,41.4,58.4,43,48,44.6c-0.9,0.1-1.6-0.2-1.6-0.8c0,0,0,0,0,0c0-0.6,0.6-1.1,1.5-1.3
			C58.2,41,68.6,39.4,79,37.8c0.9-0.1,1.6,0.2,1.7,0.8l0,0C80.8,39.1,80.1,39.6,79.3,39.8z"/>
		<path style="fill:#FFFFFF;" d="M81.3,50c-10.5,1.6-21.1,3.3-31.6,4.9c-0.9,0.1-1.7-0.2-1.8-0.7c0,0,0,0,0,0
			c-0.1-0.5,0.5-1.1,1.4-1.2c10.5-1.6,21-3.3,31.5-4.9c0.9-0.1,1.7,0.2,1.8,0.7l0,0C82.7,49.3,82.1,49.8,81.3,50z"/>
		<path style="fill:#FFFFFF;" d="M84.7,59.8c-8.9,1.4-17.9,2.8-26.8,4.2c-0.7,0.1-1.5-0.2-1.6-0.7c0,0,0,0,0,0c-0.2-0.5,0.3-1,1-1.2
			c8.9-1.4,17.8-2.8,26.7-4.2c0.7-0.1,1.5,0.2,1.7,0.7l0,0C85.9,59.2,85.4,59.7,84.7,59.8z"/>
	</g>
</g>
<g>
	
		<linearGradient id="SVGID_10_" gradientUnits="userSpaceOnUse" x1="142.1125" y1="-2.0813" x2="142.1125" y2="147.2967" gradientTransform="matrix(0.9891 0.147 -0.147 0.9891 12.482 -19.5731)">
		<stop  offset="0" style="stop-color:#F7B548"/>
		<stop  offset="1" style="stop-color:#FFD566"/>
	</linearGradient>
	<path style="fill:url(#SVGID_10_);" d="M158.1,100.9l-38.9-5.8c-1.3-0.2-2.2-1.4-2-2.8l8.1-54.4c0.2-1.3,1.4-2.2,2.8-2l38.9,5.8
		c1.3,0.2,2.2,1.4,2,2.8l-8.1,54.4C160.7,100.2,159.4,101.1,158.1,100.9z"/>
	<g>
		<g>
			
				<rect x="142.6" y="31" transform="matrix(0.147 -0.9891 0.9891 0.147 77.5706 185.2108)" style="fill:#FFD566;" width="7.2" height="33.2"/>
			<path style="fill:#FFD566;" d="M130.5,62.8L130.5,62.8c-1.8-0.3-3-1.9-2.8-3.7v0c0.3-1.8,1.9-3,3.7-2.8l0,0
				c1.8,0.3,3,1.9,2.8,3.7v0C133.9,61.9,132.3,63.1,130.5,62.8z"/>
			<path style="fill:#FFD566;" d="M156.8,66.9L156.8,66.9c-1.8-0.3-3-1.9-2.8-3.7v0c0.3-1.8,1.9-3,3.7-2.8l0,0
				c1.8,0.3,3,1.9,2.8,3.7v0C160.2,65.9,158.6,67.1,156.8,66.9z"/>
			<path style="fill:#FFD566;" d="M148,65.6L148,65.6c-1.8-0.3-3-1.9-2.8-3.7v0c0.3-1.8,1.9-3,3.7-2.8l0,0c1.8,0.3,3,1.9,2.8,3.7v0
				C151.5,64.6,149.8,65.8,148,65.6z"/>
			<path style="fill:#FFD566;" d="M139.2,64.1L139.2,64.1c-1.8-0.3-3-1.9-2.8-3.7v0c0.3-1.8,1.9-3,3.7-2.8v0c1.8,0.3,3,1.9,2.8,3.7
				v0C142.7,63.2,141,64.4,139.2,64.1z"/>
			<path style="fill:#FFD566;" d="M129.1,71.7L129.1,71.7c-1.8-0.3-3-1.9-2.8-3.7v0c0.3-1.8,1.9-3,3.7-2.8l0,0
				c1.8,0.3,3,1.9,2.8,3.7v0C132.6,70.7,130.9,72,129.1,71.7z"/>
			<path style="fill:#FFD566;" d="M155.5,75.6L155.5,75.6c-1.8-0.3-3-1.9-2.8-3.7l0,0c0.3-1.8,1.9-3,3.7-2.8l0,0
				c1.8,0.3,3,1.9,2.8,3.7v0C158.9,74.6,157.3,75.9,155.5,75.6z"/>
			<path style="fill:#FFD566;" d="M146.7,74.3L146.7,74.3c-1.8-0.3-3-1.9-2.8-3.7v0c0.3-1.8,1.9-3,3.7-2.8h0c1.8,0.3,3,1.9,2.8,3.7
				v0C150.2,73.3,148.5,74.6,146.7,74.3z"/>
			<path style="fill:#FFD566;" d="M137.9,73L137.9,73c-1.8-0.3-3-1.9-2.8-3.7v0c0.3-1.8,1.9-3,3.7-2.8l0,0c1.8,0.3,3,1.9,2.8,3.7v0
				C141.4,72,139.7,73.3,137.9,73z"/>
			<path style="fill:#FFD566;" d="M127.8,80.5L127.8,80.5c-1.8-0.3-3-1.9-2.8-3.7v0c0.3-1.8,1.9-3,3.7-2.8v0c1.8,0.3,3,1.9,2.8,3.7
				v0C131.3,79.5,129.6,80.7,127.8,80.5z"/>
			<path style="fill:#FFD566;" d="M154.2,84.4L154.2,84.4c-1.8-0.3-3-1.9-2.8-3.7v0c0.3-1.8,1.9-3,3.7-2.8l0,0
				c1.8,0.3,3,1.9,2.8,3.7v0C157.6,83.4,156,84.7,154.2,84.4z"/>
			<path style="fill:#FFD566;" d="M145.4,83.1L145.4,83.1c-1.8-0.3-3-1.9-2.8-3.7l0,0c0.3-1.8,1.9-3,3.7-2.8l0,0
				c1.8,0.3,3,1.9,2.8,3.7v0C148.9,82.1,147.2,83.4,145.4,83.1z"/>
			<path style="fill:#FFD566;" d="M136.6,81.8L136.6,81.8c-1.8-0.3-3-1.9-2.8-3.7v0c0.3-1.8,1.9-3,3.7-2.8l0,0
				c1.8,0.3,3,1.9,2.8,3.7v0C140.1,80.8,138.4,82,136.6,81.8z"/>
			<path style="fill:#FFD566;" d="M126.5,89.2L126.5,89.2c-1.8-0.3-3-1.9-2.8-3.7v0c0.3-1.8,1.9-3,3.7-2.8l0,0
				c1.8,0.3,3,1.9,2.8,3.7l0,0C130,88.3,128.3,89.5,126.5,89.2z"/>
			<path style="fill:#FFD566;" d="M152.9,93.2L152.9,93.2c-1.8-0.3-3-1.9-2.8-3.7v0c0.3-1.8,1.9-3,3.7-2.8h0c1.8,0.3,3,1.9,2.8,3.7
				v0C156.3,92.2,154.7,93.4,152.9,93.2z"/>
			<path style="fill:#FFD566;" d="M144.1,91.9L144.1,91.9c-1.8-0.3-3-1.9-2.8-3.7v0c0.3-1.8,1.9-3,3.7-2.8l0,0
				c1.8,0.3,3,1.9,2.8,3.7v0C147.6,90.9,145.9,92.1,144.1,91.9z"/>
			<path style="fill:#FFD566;" d="M135.3,90.5L135.3,90.5c-1.8-0.3-3-1.9-2.8-3.7v0c0.3-1.8,1.9-3,3.7-2.8h0c1.8,0.3,3,1.9,2.8,3.7
				v0C138.8,89.6,137.1,90.8,135.3,90.5z"/>
		</g>
	</g>
</g>
<g>
	<g>
		<linearGradient id="SVGID_11_" gradientUnits="userSpaceOnUse" x1="83.8761" y1="97.257" x2="84.1115" y2="72.0675">
			<stop  offset="0" style="stop-color:#F7B548"/>
			<stop  offset="1" style="stop-color:#FFD566"/>
		</linearGradient>
		<circle style="fill:url(#SVGID_11_);" cx="84" cy="84" r="8"/>
	</g>
	<g>
		<path style="fill:#FFC733;" d="M84,91.2c-3.9,0-7.2-3.2-7.2-7.2s3.2-7.2,7.2-7.2s7.2,3.2,7.2,7.2S87.9,91.2,84,91.2z M84,77.7
			c-3.5,0-6.3,2.8-6.3,6.3s2.8,6.3,6.3,6.3s6.3-2.8,6.3-6.3S87.5,77.7,84,77.7z"/>
	</g>
</g>
<g>
	<g>
		<linearGradient id="SVGID_12_" gradientUnits="userSpaceOnUse" x1="114.8072" y1="-9.9025" x2="110.3343" y2="86.3827">
			<stop  offset="0" style="stop-color:#F7B548"/>
			<stop  offset="1" style="stop-color:#FFD566"/>
		</linearGradient>
		<circle style="fill:url(#SVGID_12_);" cx="113" cy="29" r="8"/>
	</g>
	<g>
		<path style="fill:#FFC733;" d="M113,36.2c-3.9,0-7.2-3.2-7.2-7.2s3.2-7.2,7.2-7.2s7.2,3.2,7.2,7.2S116.9,36.2,113,36.2z M113,22.7
			c-3.5,0-6.3,2.8-6.3,6.3s2.8,6.3,6.3,6.3s6.3-2.8,6.3-6.3S116.5,22.7,113,22.7z"/>
	</g>
</g>
</svg>
