<?xml version="1.0" encoding="utf-8"?>
<!-- Generator: Adobe Illustrator 22.0.1, SVG Export Plug-In . SVG Version: 6.00 Build 0)  -->
<svg version="1.1" id="Layer_1" xmlns="http://www.w3.org/2000/svg" xmlns:xlink="http://www.w3.org/1999/xlink" x="0px" y="0px"
	 viewBox="0 0 200 120" style="enable-background:new 0 0 200 120;" xml:space="preserve">
<g>
	<path style="fill:#C7E0F4;" d="M160.7,68.6c-0.6,0-1.2-0.2-1.7-0.5c-5.4-3.1-31.6-20.3-22-52.6c0.4-1.4,1.8-2.4,3.3-2.4
		c0.5,0,0.9,0.1,1.4,0.3c1.6,0.7,4.7,1.9,8.1,1.9c3.6,0,6.3-1.3,8.3-4c0.6-0.9,1.7-1.4,2.7-1.4c1.1,0,2.1,0.5,2.7,1.4
		c2,2.7,4.7,4,8.3,4c3.3,0,6.5-1.2,8.1-1.9c0.4-0.2,0.9-0.3,1.4-0.3c1.5,0,2.8,1,3.3,2.4c9.6,32.3-16.6,49.5-22,52.6
		C161.9,68.4,161.3,68.6,160.7,68.6z"/>
</g>
<g>
	<path style="fill:#3376BB;" d="M180.5,15.2c-3.6,1.6-13.2,4.8-18.7-2.8c-0.6-0.8-1.7-0.8-2.3,0c-5.6,7.6-15.1,4.4-18.7,2.8
		c-0.8-0.3-1.7,0.1-1.9,0.9c-9.3,31,16.4,47.6,21.1,50.3c0.4,0.3,1,0.3,1.4,0c4.6-2.7,30.3-19.3,21.1-50.3
		C182.2,15.3,181.3,14.9,180.5,15.2z"/>
</g>
<g>
	<path style="fill:#E1DFDD;" d="M148,91.6L41.4,91.3c-1.2,0-2.2-1-2.2-2.2l0.1-50.2l111.1,0.3l-0.1,50.2
		C150.3,90.6,149.3,91.6,148,91.6z"/>
	<path style="fill:#FCB913;" d="M150.4,39.2L39.3,38.9l0-8.3c0-1.2,1-2.2,2.2-2.2l106.6,0.2c1.2,0,2.2,1,2.2,2.2L150.4,39.2z"/>
	<polygon style="fill:#FFFFFF;" points="143.8,84.8 80.5,84.7 80.5,84.7 80.6,45.8 80.6,45.8 143.8,45.9 143.8,45.9 143.8,84.8 	"/>
	<polygon style="fill:#FFFFFF;" points="70.3,45.7 70.3,59.6 70.3,64.1 70.2,84.7 45.8,84.6 45.9,64.1 45.9,59.6 45.9,45.7 	"/>
	
		<rect x="80.6" y="45.6" transform="matrix(1 2.319244e-03 -2.319244e-03 1 0.1515 -0.2605)" style="fill:#9BC8EB;" width="63.6" height="39.2"/>
	<g>
		<defs>
			
				<rect id="SVGID_5_" x="80.6" y="45.6" transform="matrix(-1 -2.319244e-03 2.319244e-03 -1 224.6035 130.6671)" width="63.6" height="39.2"/>
		</defs>
		<clipPath id="SVGID_10_">
			<use xlink:href="#SVGID_5_"  style="overflow:visible;"/>
		</clipPath>
		<path style="clip-path:url(#SVGID_10_);fill:none;stroke:#FCB913;stroke-width:3.6652;stroke-miterlimit:10;" d="M80.6,64
			c4.6-3.1,9.7-5.6,15.3-6.7c5.6-1.1,11.6-0.6,16.6,2c6.8,3.6,10.8,10.7,18.1,13.4c4.4,1.6,9.5,1.3,13.6-0.8l0.1-26.2l-63.6-0.1
			L80.6,64z"/>
	</g>
	<g>
		
			<linearGradient id="SVGID_11_" gradientUnits="userSpaceOnUse" x1="-12959.0225" y1="-12048.1064" x2="-12959.0225" y2="-11646.2051" gradientTransform="matrix(-6.985158e-02 -1.620029e-04 1.620029e-04 -6.985158e-02 -790.8984 -770.0217)">
			<stop  offset="0" style="stop-color:#46B767"/>
			<stop  offset="0.3439" style="stop-color:#45B465"/>
			<stop  offset="0.6017" style="stop-color:#41AA60"/>
			<stop  offset="0.8308" style="stop-color:#3B9A57"/>
			<stop  offset="1" style="stop-color:#35894D"/>
		</linearGradient>
		<path style="fill:url(#SVGID_11_);" d="M80.6,64c4.6-3.1,9.7-5.6,15.3-6.7c5.6-1.1,11.6-0.6,16.6,2c6.8,3.6,10.8,10.7,18.1,13.4
			c4.4,1.6,9.5,1.3,13.6-0.8l0.1-26.2l-63.6-0.1L80.6,64z"/>
	</g>
	<g>
		<defs>
			
				<rect id="SVGID_3_" x="39.3" y="28.5" transform="matrix(1 2.319244e-03 -2.319244e-03 1 0.1394 -0.2197)" width="111.1" height="62.9"/>
		</defs>
		<clipPath id="SVGID_12_">
			<use xlink:href="#SVGID_3_"  style="overflow:visible;"/>
		</clipPath>
	</g>
	
		<radialGradient id="SVGID_15_" cx="726.5899" cy="741.3896" r="173.791" gradientTransform="matrix(6.985158e-02 1.620029e-04 -1.620029e-04 6.985158e-02 83.9075 -6.5688)" gradientUnits="userSpaceOnUse">
		<stop  offset="0" style="stop-color:#797673"/>
		<stop  offset="6.156582e-02" style="stop-color:#797673;stop-opacity:0.9384"/>
		<stop  offset="1" style="stop-color:#797673;stop-opacity:0"/>
	</radialGradient>
	<circle style="fill:url(#SVGID_15_);" cx="134.5" cy="45.3" r="12.1"/>
	<g>
		<g>
			<path style="fill:#FCB913;" d="M134.3,37.3c-4.2,0.1-7.7,3.5-7.9,7.8c-0.1,1.8,0.5,3.5,1.4,4.9l5.4,7.8c0.5,0.8,1.7,0.8,2.2,0
				l5.6-7.7c0.9-1.3,1.5-2.9,1.5-4.7C142.7,40.9,138.9,37.2,134.3,37.3z"/>
			<circle style="fill:#FFFFFF;" cx="134.5" cy="45.3" r="2.6"/>
		</g>
	</g>
</g>
<g>
	<rect x="48.9" y="52.6" style="fill:#E1DFDD;" width="1.9" height="1.9"/>
	<rect x="52.5" y="52.6" style="fill:#E1DFDD;" width="14.8" height="1.9"/>
</g>
<g>
	<rect x="48.9" y="56.5" style="fill:#E1DFDD;" width="1.9" height="1.9"/>
	<rect x="52.5" y="56.5" style="fill:#E1DFDD;" width="14.8" height="1.9"/>
</g>
<g>
	<rect x="48.9" y="60.4" style="fill:#E1DFDD;" width="1.9" height="1.9"/>
	<rect x="52.5" y="60.4" style="fill:#E1DFDD;" width="14.8" height="1.9"/>
</g>
<g>
	<rect x="48.9" y="68.1" style="fill:#FCB913;" width="11.2" height="1.9"/>
</g>
<g>
	<rect x="48.9" y="72" style="fill:#E1DFDD;" width="1.9" height="1.9"/>
	<rect x="52.5" y="72" style="fill:#E1DFDD;" width="14.8" height="1.9"/>
</g>
<g>
	<rect x="48.9" y="75.9" style="fill:#E1DFDD;" width="1.9" height="1.9"/>
	<rect x="52.5" y="75.9" style="fill:#E1DFDD;" width="14.8" height="1.9"/>
</g>
<g>
	<rect x="48.9" y="79.8" style="fill:#E1DFDD;" width="1.9" height="1.9"/>
	<rect x="52.5" y="79.8" style="fill:#E1DFDD;" width="14.8" height="1.9"/>
</g>
<linearGradient id="SVGID_17_" gradientUnits="userSpaceOnUse" x1="21.3615" y1="107.1108" x2="41.0318" y2="64.4668">
	<stop  offset="0" style="stop-color:#E1DFDD"/>
	<stop  offset="1" style="stop-color:#FAF9F8"/>
</linearGradient>
<circle style="fill:url(#SVGID_17_);" cx="29" cy="90.5" r="9.3"/>
<linearGradient id="SVGID_19_" gradientUnits="userSpaceOnUse" x1="43.7261" y1="117.4268" x2="63.3964" y2="74.7829">
	<stop  offset="0" style="stop-color:#E1DFDD"/>
	<stop  offset="1" style="stop-color:#FAF9F8"/>
</linearGradient>
<circle style="fill:url(#SVGID_19_);" cx="56.2" cy="90.5" r="9.3"/>
<path style="fill:#3376BB;" d="M57.1,80.5c-4.8-0.4-9,2.6-10.4,6.8c-0.1,0.3-0.4,0.5-0.8,0.4c-1-0.4-2.1-0.6-3.3-0.6
	c-1.2,0-2.3,0.2-3.3,0.6c-0.3,0.1-0.7-0.1-0.8-0.4c-1.4-4.3-5.6-7.3-10.4-6.8c-4.8,0.4-8.7,4.4-9.1,9.2c-0.4,5.8,4.2,10.7,10,10.7
	c5.5,0,10-4.5,10-10l0,0c0-0.2,0.1-0.4,0.3-0.5c1-0.5,2.1-0.7,3.2-0.7c1.2,0,2.3,0.3,3.2,0.7c0.2,0.1,0.3,0.3,0.3,0.5v0
	c0,5.5,4.5,10,10,10c5.7,0,10.4-4.9,10-10.7C65.8,84.9,61.9,80.9,57.1,80.5z M29.7,98.3c-4.9,0.4-8.9-3.7-8.5-8.5
	c0.3-3.8,3.4-6.9,7.2-7.2c4.9-0.4,8.9,3.7,8.5,8.5C36.6,94.9,33.5,98,29.7,98.3z M56.8,98.3c-4.9,0.4-8.9-3.7-8.5-8.5
	c0.3-3.8,3.4-6.9,7.2-7.2c4.9-0.4,8.9,3.7,8.5,8.5C63.7,94.9,60.6,98,56.8,98.3z"/>
<g>
	<rect x="48.9" y="48.7" style="fill:#46B767;" width="11.2" height="1.9"/>
</g>
<path style="fill:#3376BB;" d="M64,91.4c-0.4,3.7-3.5,6.6-7.2,6.9c-4.3,0.3-8-2.8-8.5-7l-2.1,0c0.5,5.1,4.7,9.1,10,9.1
	c5.2,0,9.5-4,10-9L64,91.4z"/>
<path style="fill:#E1DFDD;" d="M64,91.1c0,0.1,0,0.2,0,0.3l-15.7,0c-0.1-0.5-0.1-1,0-1.6c0.3-3.8,3.4-6.9,7.2-7.2
	C60.4,82.2,64.4,86.2,64,91.1z"/>
</svg>
