<?xml version="1.0" encoding="utf-8"?>
<!-- Generator: Adobe Illustrator 23.0.1, SVG Export Plug-In . SVG Version: 6.00 Build 0)  -->
<svg version="1.1" id="Layer_1" xmlns="http://www.w3.org/2000/svg" xmlns:xlink="http://www.w3.org/1999/xlink" x="0px" y="0px"
	 viewBox="0 0 400 140" style="enable-background:new 0 0 400 140;" xml:space="preserve">
<style type="text/css">
	.st0{fill:#C2C2C2;}
	.st1{fill:#2F2F2F;}
	.st2{fill:#D83B01;}
	.st3{fill:#FFFFFF;}
	.st4{fill:#03D60D;}
</style>
<title>Office_365_3_400x140</title>
<path class="st0" d="M117.9,77c1.9-2.1,4.1-3.9,6.6-5.3c2.7-1.4,5.5-2.5,8.5-3.1v-0.1c0.8-3.6,2.3-7.1,4.3-10.3c2-3,4.4-5.7,7.2-8
	c2.8-2.3,6-4,9.4-5.2c3.5-1.3,7.3-1.9,11-1.9c2.2,0,4.3,0.2,6.4,0.7c2.1,0.5,4.2,1.2,6.1,2.2c2,1,3.8,2.2,5.5,3.6
	c1.7,1.4,3.1,3.1,4.3,4.9c1.5-0.9,3.2-1.5,5-1.8c1.7-0.3,3.5-0.4,5.3-0.3c-0.4-3.9-1.6-7.7-3.5-11.2c-1.8-3.4-4.3-6.4-7.1-9
	c-2.9-2.6-6.2-4.6-9.8-6c-3.7-1.4-7.6-2.2-11.5-2.1c-2.8,0-5.5,0.4-8.2,1.2c-2.6,0.8-5.1,1.9-7.4,3.3c-4.6,2.9-8.5,7-11.1,11.8
	c-0.8-0.5-1.7-1-2.7-1.4c-1-0.4-2-0.7-3-1c-1-0.3-2.1-0.4-3.1-0.6c-1-0.1-2-0.2-2.9-0.2c-3.3,0-6.6,0.7-9.6,2
	c-2.9,1.3-5.5,3.1-7.7,5.4c-2.2,2.3-3.9,5-5.1,8c-1.2,3-1.9,6.3-1.9,9.5c0,0.5,0,0.9,0,1.4c0,0.4,0,0.9,0.1,1.4c-1,0.1-2,0.3-3,0.5
	c-1,0.3-2,0.6-2.9,1c-3.7,1.4-6.9,4-8.9,7.4c-2,3.5-3,7.4-2.9,11.4c0,2.6,0.5,5.1,1.6,7.4c1,2.3,2.5,4.4,4.2,6.2
	c1.8,1.8,3.9,3.3,6.2,4.4c2.3,1.1,4.8,1.6,7.4,1.6h9.4c-0.7-1.9-1.2-3.8-1.6-5.8c-0.3-2-0.5-4-0.5-6c0-3,0.5-6.1,1.5-8.9
	C114.6,81.6,116.1,79.1,117.9,77z"/>
<g id="on_premises_building_1_">
	<polygon class="st1" points="252.4,39.5 252.4,31.1 202.4,31.1 202.4,118.7 227.4,118.7 227.4,39.5 	"/>
	<path class="st1" d="M243,88.5h25v29.2h8.4V110c0,0-4.9-4.3-4.9-14s4.9-13.8,4.9-13.8V46.8h-41.7v70.9h8.3V88.5z M259.6,55.1h8.4
		v8.3h-8.3L259.6,55.1z M259.6,71.8h8.4v8.3h-8.3L259.6,71.8z M243,55.1h8.3v8.3H243V55.1z M243,71.8h8.3v8.3H243V71.8z"/>
	<rect x="251.4" y="96.8" class="st2" width="8.3" height="20.9"/>
	<path class="st2" d="M218,113.5h-8.3v-8.3h8.3V113.5z M218,96.8h-8.3v-8.3h8.3V96.8z M218,80.1h-8.3v-8.3h8.3V80.1z M218,63.5h-8.3
		v-8.3h8.3V63.5z M218,46.8h-8.3v-8.3h8.3V46.8z"/>
	<rect x="209.7" y="55.1" class="st2" width="8.3" height="8.3"/>
	<rect x="209.7" y="38.5" class="st3" width="8.3" height="8.3"/>
	<rect x="209.7" y="71.8" class="st3" width="8.3" height="8.3"/>
	<rect x="209.7" y="88.5" class="st3" width="8.3" height="8.3"/>
	<rect x="209.7" y="105.1" class="st3" width="8.3" height="8.3"/>
	<rect x="243" y="71.8" class="st2" width="8.3" height="8.3"/>
	<rect x="243" y="55.1" class="st3" width="8.3" height="8.3"/>
	<rect x="259.7" y="71.8" class="st3" width="8.3" height="8.3"/>
	<rect x="259.7" y="55.1" class="st2" width="8.3" height="8.3"/>
	<polygon class="st3" points="268,88.5 243,88.5 243,117.7 251.4,117.7 251.4,96.8 259.7,96.8 259.7,117.7 268,117.7 	"/>
</g>
<g id="trusted_application_server">
	<path class="st4" d="M295,114.8c-1.7,0-3.4-0.2-5-0.7c-1.6-0.4-3.1-1.1-4.5-1.9c-1.4-0.8-2.7-1.8-3.8-2.9c-1.1-1.1-2.1-2.4-2.9-3.8
		c-0.8-1.4-1.4-2.9-1.8-4.5c-0.9-3.3-0.9-6.7,0-10c0.4-1.6,1.1-3.1,1.9-4.5c0.8-1.4,1.8-2.7,2.9-3.8c1.1-1.1,2.4-2.1,3.8-2.9
		c1.4-0.8,2.9-1.4,4.4-1.8c6.5-1.8,13.5,0,18.2,4.8c1.1,1.1,2.1,2.4,2.9,3.8c0.8,1.4,1.4,2.9,1.8,4.5c0.9,3.3,0.9,6.7,0,10
		c-0.9,3.1-2.5,6-4.8,8.3C304.7,112.8,299.9,114.8,295,114.8z"/>
	<polygon class="st3" points="292.5,98.4 288.3,94.2 286.4,96.1 292.5,102.2 304.6,90.1 302.7,88.3 	"/>
</g>
</svg>
