<?xml version="1.0" encoding="utf-8"?>
<!-- Generator: Adobe Illustrator 23.0.1, SVG Export Plug-In . SVG Version: 6.00 Build 0)  -->
<svg version="1.1" id="Layer_1" xmlns="http://www.w3.org/2000/svg" xmlns:xlink="http://www.w3.org/1999/xlink" x="0px" y="0px"
	 viewBox="0 0 400 140" style="enable-background:new 0 0 400 140;" xml:space="preserve">
<style type="text/css">
	.st0{fill:#2F2F2F;}
	.st1{fill:#C2C2C2;}
	.st2{fill:#FFFFFF;}
	.st3{fill:#0078D7;}
	.st4{opacity:0.25;}
</style>
<title>Office_365_4_400x140</title>
<g id="book_journal">
	<path class="st0" d="M197.6,111.7c-1.6-0.7-3.2-1.3-4.9-1.6c-1.8-0.4-3.7-0.6-5.6-0.6h-47V35h-8.3v82.7h74.4
		c-1.3-1.3-2.7-2.5-4.2-3.5C200.8,113.2,199.2,112.3,197.6,111.7z"/>
	<path class="st1" d="M195.9,102.2c2.8,0.7,5.5,1.8,8.1,3.2V94.4h-18.5c-7-0.4-8.9-7-8.4-10.6l5.7-35.1c2.3-7.9,9.4-8.5,9.4-8.5
		h11.7v-7.6c-2.3-1.9-5-3.5-7.8-4.5c-2.8-1-5.8-1.5-8.8-1.5h-38.6v74.4h38.6C190.1,101.2,193,101.4,195.9,102.2z"/>
	<path class="st0" d="M275.8,35v74.4h-47c-1.9,0-3.7,0.2-5.6,0.6c-1.7,0.4-3.3,0.9-4.9,1.6s-3.1,1.6-4.4,2.6
		c-1.5,1.1-2.9,2.3-4.2,3.5H284V35H275.8z"/>
	<path class="st2" d="M228.6,26.7h0.2h38.6v74.3h-38.6c-2.9,0-5.8,0.4-8.6,1.1c-2.8,0.7-5.5,1.8-8.1,3.2V32.7c2.3-1.9,5-3.5,7.8-4.5
		c0.5-0.2,1-0.2,1.5-0.4L228.6,26.7z"/>
</g>
<g id="Titles">
	<path class="st3" d="M186.4,90.4c-2.8,0-5.2-2.2-5.4-5c-0.1-0.4-0.1-0.8,0-1.2l5.7-34.8v-0.1c0.7-3,3.4-5.1,6.5-5.1h38.5
		c2.8,0,5.2,2.2,5.5,5c0,0.4,0,0.7,0,1.1v0.2l-5.8,34.7v0.1c-0.7,3-3.4,5.1-6.5,5.1H186.4L186.4,90.4z"/>
	<path class="st2" d="M197.1,81.9c-1.1-0.1-1.9-1-1.8-2.1c0-0.5,0.3-1,0.7-1.4l16.4-12.1l-11.9-11.1c-0.7-0.8-0.7-2,0-2.7l0,0
		c0.8-0.8,2-0.8,2.8-0.1L217,65.2c0.7,0.8,0.7,2,0,2.8l0,0l-0.2,0.2l-18.3,13.4C197.9,81.8,197.5,81.9,197.1,81.9z"/>
	<path class="st2" d="M218,81.8h-9c-1.1,0.1-2-0.8-2.1-1.9c0-0.8,0.4-1.6,1.2-1.9c0.2,0,0.4,0,0.6,0h9.2c1.1,0.2,1.8,1.2,1.6,2.3
		c-0.1,0.7-0.7,1.3-1.4,1.6L218,81.8z"/>
	<g class="st4">
		<path class="st2" d="M231.1,46.9h-38.3c-1.3,0-2.5,0.7-3.2,1.7c9.5,9.1,28.7,27.8,37.8,36.7c0.4-0.4,0.7-1,0.8-1.6l5.7-34
			c0.2-1.4-0.8-2.7-2.2-2.8l0,0C231.6,46.9,231.4,46.9,231.1,46.9z"/>
	</g>
</g>
</svg>
