<?xml version="1.0" encoding="utf-8"?>
<!-- Generator: Adobe Illustrator 23.0.1, SVG Export Plug-In . SVG Version: 6.00 Build 0)  -->
<svg version="1.1" id="Layer_1" xmlns="http://www.w3.org/2000/svg" xmlns:xlink="http://www.w3.org/1999/xlink" x="0px" y="0px"
	 viewBox="0 0 400 140" style="enable-background:new 0 0 400 140;" xml:space="preserve">
<style type="text/css">
	.st0{fill:#E0EAEF;}
	.st1{fill:#03D60D;}
	.st2{fill:#FFFFFF;}
	.st3{fill:#D83B01;}
	.st4{fill:#C2C2C2;}
</style>
<title>Office_365_2_400x140</title>
<path class="st0" d="M194,25.8L194,25.8L194,25.8z"/>
<path class="st1" d="M245.9,83.4c-1.7-0.5-3.3-0.6-5-0.6l0,0c-1.7,0-3.3,0.3-5,0.6c-1.5,0.4-3.1,1-4.5,1.9c-1.4,0.8-2.7,1.8-3.9,3
	s-2.2,2.4-3.1,3.9c-0.8,1.4-1.4,3-1.9,4.5c-0.9,3.3-0.9,6.8,0,10c0.4,1.5,1,3.1,1.9,4.5s1.8,2.7,3.1,3.9c1.2,1.2,2.4,2.2,3.9,3
	c9,5.3,20.7,2.2,26-6.8c0.8-1.4,1.4-3,1.9-4.5c0.9-3.3,0.9-6.8,0-10c-0.5-1.5-1-3.1-1.9-4.5C254.8,87.8,250.6,84.7,245.9,83.4z
	 M237.9,109.1l-7.3-7.5l2.3-2.3l5.1,5.1l12.2-12.2l2.3,2.3L237.9,109.1z"/>
<polygon class="st2" points="237.9,104.5 232.7,99.5 230.4,101.7 237.9,109.1 252.3,94.6 250.1,92.3 "/>
<path class="st3" d="M218.5,88.5c2.2-3.9,5.4-7.1,9.3-9.3c1.9-1.2,4-1.9,6.2-2.6c1.4-0.4,2.8-0.6,4.2-0.8c0-0.1,0.1-0.3,0.1-0.4
	c1.3-4.4,1.9-8.9,1.8-13.5V39.1l-3.1-0.3c-4.8-0.3-9.4-1-13.9-2.3s-8.8-3.3-12.6-5.8c-2.4-1.5-5-2.8-7.9-3.7
	c-5.7-1.5-11.6-1.5-17.1,0c-2.7,0.9-5.4,2.1-7.9,3.7c-4,2.6-8.2,4.5-12.7,5.8s-9.1,2.1-13.9,2.3l-3.1,0.1v23c0,4.5,0.6,9,1.8,13.4
	c1.2,4.2,2.8,8.2,5,12.1c2.1,3.9,4.6,7.5,7.5,10.8s5.9,6.6,9.1,9.5c3.2,3,6.7,5.7,10.3,8.2c3.5,2.4,7.1,4.8,10.7,6.8l1.7,1l1.7-1
	c3.6-2.1,7.2-4.4,10.7-6.8c3.3-2.3,6.4-4.8,9.5-7.5C214,101.8,214.9,94.6,218.5,88.5L218.5,88.5z"/>
<path class="st4" d="M348.7,68.1c-2.2-3.6-5.4-6.3-9.3-7.7c-1-0.4-1.9-0.8-3.1-1c-1-0.3-2.1-0.5-3.1-0.5c0-0.5,0.1-1,0.1-1.4
	s0-0.9,0-1.4c0-3.3-0.6-6.8-1.9-9.9c-1.3-3.1-3.1-5.9-5.3-8.4c-2.3-2.4-5-4.4-8-5.7c-3.1-1.4-6.6-2.1-10-2.1c-1,0-2.1,0-3.1,0.1
	s-2.2,0.4-3.2,0.6s-2.1,0.6-3.1,1s-1.9,0.9-2.8,1.4c-1.4-2.6-3.1-4.9-5-7c-1.9-2.1-4.1-3.9-6.6-5.4s-5-2.7-7.7-3.5
	c-2.7-0.8-5.7-1.3-8.5-1.3c-4.1,0-8.2,0.8-12,2.2c-3.7,1.5-7.2,3.6-10.2,6.3c-2.6,2.3-4.8,5-6.6,8h1l6.1,0.3v13.8
	c1-1.4,2.3-2.7,3.6-3.9c1.7-1.4,3.6-2.7,5.7-3.7c2.1-1,4.2-1.8,6.4-2.2c2.2-0.5,4.5-0.8,6.7-0.8c3.9,0,7.7,0.6,11.5,1.9
	c3.6,1.3,6.8,3.1,9.8,5.4c3,2.4,5.4,5.3,7.5,8.4c2.1,3.2,3.6,6.8,4.5,10.7l0,0c3.1,0.6,6.1,1.7,8.9,3.2c2.6,1.4,4.9,3.2,6.8,5.4
	c1.9,2.2,3.3,4.8,4.4,7.6c1,3,1.7,6.2,1.5,9.3c0,2.1-0.1,4.2-0.5,6.3c-0.4,2.1-0.9,4.1-1.7,6.1h9.8c2.7,0,5.3-0.6,7.7-1.7
	c4.9-2.2,8.8-6.2,10.9-11.1c1-2.4,1.7-5,1.7-7.7C351.8,75.8,350.8,71.7,348.7,68.1z"/>
<path class="st2" d="M310.5,74.4c-1.9-1.7-4.1-3-6.6-3.7c-2.6-0.9-5.1-1.4-7.9-1.5c-0.3-2.8-0.8-5.7-1.9-8.2c-1-2.6-2.3-5.1-4-7.3
	c-1.7-2.2-3.7-4.1-6.1-5.7c-2.3-1.5-5-2.7-7.7-3.3c-2.4-0.6-4.9-0.9-7.5-0.9c-4.4,0-8.8,1-12.6,3.2c-3.9,2.2-7.1,5.3-9.4,9l-0.5-0.3
	V62c0,4.8-0.5,9.4-1.7,13.9c1,0.1,2.1,0.4,3.1,0.6c8.8,2.4,15.7,9.4,18.2,18.2c1.4,5,1.2,10.3-0.5,15.2h29.7c3.1,0,6.2-0.5,9-1.5
	c5.1-1.9,9.1-6.1,10.9-11.2c1-3,1.4-5.9,1.4-9C316.8,82.9,314.5,77.9,310.5,74.4z"/>
<path class="st4" d="M73.8,71.3c1.9-2.2,4.2-4.1,6.8-5.4c2.8-1.5,5.8-2.6,8.9-3.2l0,0c0.9-3.7,2.4-7.3,4.5-10.7
	c2.1-3.2,4.5-6.1,7.5-8.4c3-2.3,6.2-4.2,9.8-5.4c3.7-1.3,7.6-1.9,11.5-1.9c2.3,0,4.5,0.3,6.7,0.8c2.2,0.5,4.4,1.3,6.4,2.2
	c2.1,1,3.9,2.2,5.7,3.6v-9.8l6.1-0.3l3.1-0.1c0.5,0,1-0.1,1.4-0.1c-1.8-2.8-4-5.5-6.4-7.7c-3.1-2.7-6.6-4.8-10.3-6.2
	c-3.9-1.5-7.9-2.3-12-2.2c-2.8,0-5.7,0.4-8.5,1.3c-2.7,0.8-5.3,1.9-7.7,3.5c-2.4,1.5-4.6,3.3-6.6,5.4c-1.9,2.1-3.7,4.4-5,7
	c-0.9-0.5-1.8-1-2.8-1.4c-1-0.4-2.1-0.8-3.1-1c-1-0.3-2.2-0.5-3.2-0.6c-1-0.1-2.1-0.1-3-0.1c-3.5,0-6.8,0.6-9.9,2.1
	c-3.1,1.3-5.8,3.2-8.1,5.7c-2.3,2.4-4.1,5.3-5.4,8.4c-1.3,3.2-1.9,6.6-1.9,9.9c0,0.5,0,1,0,1.4s0,0.9,0.1,1.4
	c-1,0.1-2.1,0.3-3.1,0.5s-2.1,0.6-3,1c-3.9,1.4-7.2,4.1-9.3,7.7c-2.1,3.6-3.1,7.7-3,11.8c0,2.7,0.5,5.3,1.7,7.7
	c2.2,4.9,6.1,8.9,10.9,11.1c2.4,1.2,5,1.7,7.7,1.7H70c-0.8-1.9-1.3-4-1.7-6.1s-0.5-4.1-0.5-6.3c0-3.2,0.5-6.4,1.5-9.4
	C70.3,76.1,71.8,73.5,73.8,71.3z"/>
<path class="st2" d="M149.1,90.6c-2.3-4.2-4.2-8.8-5.5-13.4c-1.4-4.9-2.1-10-2.1-15.2V51.7c-1.8-1.9-3.9-3.6-6.2-4.9
	c-3.9-2.2-8.2-3.2-12.7-3.2c-2.6,0-5,0.3-7.5,0.9c-2.7,0.6-5.3,1.8-7.6,3.3c-2.3,1.5-4.4,3.5-6.1,5.5c-1.7,2.2-3.1,4.8-4.1,7.3
	c-1,2.6-1.7,5.4-1.8,8.2c-2.7,0.1-5.3,0.6-7.9,1.5c-2.4,0.9-4.6,2.2-6.6,3.7c-4,3.5-6.3,8.5-6.2,13.9c0,3.1,0.4,6.1,1.4,9
	c1.7,5.1,5.8,9.4,10.9,11.2c2.8,1,5.9,1.5,9,1.5h68.1c-2.4-2.4-4.8-4.9-7-7.5C154.2,98.8,151.4,94.8,149.1,90.6z"/>
<path class="st0" d="M223.6,110L223.6,110L223.6,110L223.6,110z"/>
<polyline class="st2" points="198.9,49.3 198.9,82.1 189,82.1 189,49.3 198.9,49.3 "/>
<rect x="189" y="88.9" class="st2" width="9.9" height="6.8"/>
</svg>
