<?xml version="1.0" encoding="utf-8"?><svg xmlns="http://www.w3.org/2000/svg" xmlns:xlink="http://www.w3.org/1999/xlink"><defs><svg viewBox="0 0 24 24" id="account_balance" xmlns="http://www.w3.org/2000/svg"><path d="M0 0h24v24H0z" fill="none"/><path d="M4 10v7h3v-7H4zm6 0v7h3v-7h-3zM2 22h19v-3H2v3zm14-12v7h3v-7h-3zm-4.5-9L2 6v2h19V6l-9.5-5z"/></svg><svg viewBox="0 0 24 24" id="account_balance-outline" xmlns="http://www.w3.org/2000/svg"><path fill="none" d="M0 0h24v24H0V0z"/><path d="M6.5 10h-2v7h2v-7zm6 0h-2v7h2v-7zm8.5 9H2v2h19v-2zm-2.5-9h-2v7h2v-7zm-7-6.74L16.71 6H6.29l5.21-2.74m0-2.26L2 6v2h19V6l-9.5-5z"/></svg><svg viewBox="0 0 24 24" id="account_balance-twotone" xmlns="http://www.w3.org/2000/svg"><path fill="none" d="M0 0h24v24H0V0z"/><path opacity=".3" d="M6.29 6l5.21-2.74L16.71 6z"/><path d="M6.5 10h-2v7h2v-7zm6 0h-2v7h2v-7zm8.5 9H2v2h19v-2zm-2.5-9h-2v7h2v-7zm-7-9L2 6v2h19V6l-9.5-5zM6.29 6l5.21-2.74L16.71 6H6.29z"/></svg></defs></svg>